<?xml version="1.0" encoding="UTF-8" standalone="no"?><!DOCTYPE svg PUBLIC "-//W3C//DTD SVG 1.1//EN" "http://www.w3.org/Graphics/SVG/1.1/DTD/svg11.dtd"><svg width="100%" height="100%" viewBox="0 0 9942 8534" version="1.1" xmlns="http://www.w3.org/2000/svg" xmlns:xlink="http://www.w3.org/1999/xlink" xml:space="preserve" xmlns:serif="http://www.serif.com/" style="fill-rule:evenodd;clip-rule:evenodd;stroke-linecap:round;stroke-linejoin:round;stroke-miterlimit:1.5;"><rect id="Artboard1" x="0" y="0" width="9939.62" height="8530" style="fill:none;"/><path d="M3628.52,3688.58c-56.146,-300.841 -122.088,-686.35 -122.088,-915.833c0,-1355.91 1053.38,-2454.52 2347.98,-2454.52c1294.6,0 2347.97,1098.61 2347.97,2454.52c0,225.629 -63.608,601.908 -119.229,900.608l215.742,426.542c0.312,0.621 0.621,1.246 0.921,1.871c189.937,396.166 35.487,680.65 -96.779,932.471c-60.913,115.962 -120.559,221.058 -101.155,332.858c12.217,70.383 58.246,140.279 148.588,218.287c73.642,63.584 294.358,137.33 524.954,261.492c256.646,138.188 523.004,332.508 654.742,616.146c272.35,586.392 -57.863,1093.23 -129.692,1260.57c-16.8,39.129 -56.858,63.02 -99.271,59.204c-42.412,-3.821 -77.558,-34.479 -87.1,-75.984c-28.021,-121.929 -40.521,-263.758 -72.9,-403.8c-28.604,-123.733 -73.146,-246.683 -168.133,-348.116c-130.996,-139.888 -354.058,-235.042 -741.275,-251.759c-164.975,-7.12 -314.288,-57.37 -443.275,-145.208c-11.546,161.438 -8.904,329.1 15.537,506.684c30.675,222.824 108.171,364.925 207.521,457.204c154.529,143.537 355.225,169.566 491.167,203.962c32.237,8.154 58.179,32.042 68.962,63.5c10.784,31.458 4.955,66.233 -15.5,92.458c-200.291,256.755 -496.912,306.113 -794.983,209.363c-414.312,-134.488 -829.875,-562.271 -939.804,-1061.9c-180.375,-819.8 -161.279,-1411.63 19.05,-1900.34c-269.454,63.075 -569.658,98.409 -886.063,98.409c-783.704,-0 -1467.55,-218.946 -1837.95,-537.113c-125.612,44.904 -276.987,99.3 -459.316,164.904c-613.984,220.905 -1149.65,209.925 -1509.03,33.684c-255.858,-125.467 -427.083,-333.184 -484.845,-604.354c-80.43,-377.55 -211.417,-580.95 -371.43,-686.53c-116.204,-76.67 -245.379,-100.162 -372.704,-107.85c-143.975,-8.695 -286.429,2.434 -411.754,-4.975c-42.583,-2.52 -78.696,-32.179 -89.442,-73.462c-10.745,-41.279 6.325,-84.783 42.275,-107.746c153.692,-98.154 600.588,-506.179 1225.65,-335.446c302.48,82.621 538.725,312.284 717.863,541.642c160.958,206.083 270.392,410.8 345.483,472.662c92.104,75.875 168.95,109.575 240.646,110.084c113.758,0.8 207.938,-74.75 312.479,-153.571c125.2,-94.4 259.654,-197.654 426.188,-250.613Z" style="fill:#4c1e96;"/><path d="M3800.91,4094.3c0,-82.292 -196.054,-931.417 -196.054,-1321.55c0,-1300.36 1007.99,-2356.09 2249.55,-2356.09c1241.56,0 2249.55,1055.73 2249.55,2356.09c0,390.133 -196.054,1239.26 -196.054,1321.55c0,570.979 -920.141,1034.54 -2053.5,1034.54c-1133.36,-0 -2053.5,-463.563 -2053.5,-1034.54Z" style="fill:#8b5cf6;"/><path d="M4082.74,3783.96c-767.538,-219.738 -920.163,749.179 -1496.12,274.683c-155.638,-128.217 -463.383,-841.454 -1026.7,-995.321c-586.083,-160.088 -1002.63,231.421 -1146.74,323.454c417.879,24.704 1026.15,-156.587 1246.34,877.104c128.375,602.629 892.867,848.071 1864.29,498.559c1375.21,-494.792 990.275,-352.471 1070.14,-306.709" style="fill:#8b5cf6;"/><g><clipPath id="_clip1"><path d="M4082.74,3783.96c-767.538,-219.738 -920.163,749.179 -1496.12,274.683c-155.638,-128.217 -463.383,-841.454 -1026.7,-995.321c-586.083,-160.088 -1002.63,231.421 -1146.74,323.454c417.879,24.704 1026.15,-156.587 1246.34,877.104c128.375,602.629 892.867,848.071 1864.29,498.559c1375.21,-494.792 990.275,-352.471 1070.14,-306.709"/></clipPath><g clip-path="url(#_clip1)"><path d="M667.575,3212.09c402.95,-2.759 906.275,-41.092 1102.24,791.549c128.375,545.446 892.866,767.596 1864.29,451.251c334.954,-109.08 571.667,-90.45 609.463,-36.663c33.742,48.004 -71.179,110.867 -719.754,344.217c-971.425,349.512 -1735.92,104.071 -1864.29,-498.559c-220.196,-1033.69 -828.463,-852.4 -1246.34,-877.104c51.534,-32.908 137.896,-104.112 254.392,-174.691Z" style="fill:#fda4af;"/></g></g><path d="M8211.08,4144.32c344.225,717.971 -589.695,1027.91 -24.92,1515.56c152.616,131.775 909.445,316.446 1154.75,844.604c255.221,549.505 -63.559,1023.47 -130.871,1180.28c-93.442,-406.563 -14.4,-1034.22 -1073.99,-1079.96c-617.729,-26.662 -986.896,-737.4 -801.287,-1749.7c262.758,-1433.08 204.091,-1868.78 247.62,-1953.76" style="fill:#8b5cf6;"/><g><clipPath id="_clip2"><path d="M8211.08,4144.32c344.225,717.971 -589.695,1027.91 -24.92,1515.56c152.616,131.775 909.445,316.446 1154.75,844.604c255.221,549.505 -63.559,1023.47 -130.871,1180.28c-93.442,-406.563 -14.4,-1034.22 -1073.99,-1079.96c-617.729,-26.662 -986.896,-737.4 -801.287,-1749.7c262.758,-1433.08 204.091,-1868.78 247.62,-1953.76"/></clipPath><g clip-path="url(#_clip2)"><path d="M9340.96,7405.96c-63.791,-396.429 -108.937,-897.366 -965.512,-952.483c-561.121,-36.104 -907.233,-750.683 -754.458,-1757.51c99.695,-657.029 -146.83,-463.213 -286.238,159.154c-224.971,1004.35 183.558,1723.04 801.288,1749.7c1059.59,45.737 980.55,673.4 1073.99,1079.96c24.071,-56.071 80.292,-152.695 130.929,-278.825Z" style="fill:#fda4af;"/></g></g><path d="M7918.17,4931.58c9.323,-49.123 99.146,-562.903 99.146,-562.903c8.516,163.428 -14.111,372.603 -30.267,522.521c-34.462,319.8 -97.264,560.839 -171.822,855.157c-105.472,416.35 -201.793,831.709 -134.385,1321.43c31.633,229.804 112.324,376.005 214.783,471.175c157.886,146.653 362.468,174.367 501.362,209.506c24.567,6.215 44.334,24.415 52.552,48.387c8.218,23.971 3.776,50.471 -11.811,70.452c-193.747,248.37 -480.951,295.083 -769.28,201.492c-407.512,-132.278 -816.037,-553.225 -924.162,-1044.65c-191.674,-871.155 -159.391,-1483.12 56.39,-1987.64c144.54,-337.95 282.476,-266.964 146.019,48.121c-209.33,483.35 -240.208,1069.67 -55.913,1907.28c96.566,438.894 460.027,816.074 823.977,934.212c186.231,60.45 373.052,50.869 518.002,-63.314c-140.064,-35.479 -303.894,-88.249 -439.221,-213.948c-122.385,-113.678 -223.512,-286.126 -261.297,-560.623c-70.317,-510.853 27.554,-944.4 137.577,-1378.72c105.987,-418.379 204.347,-546.08 248.35,-777.939Z" style="fill:#4c1e96;"/><path d="M7942.42,4372.58c52.508,1007.62 -473.6,1704.86 -335.875,2705.43c86.771,630.37 524.804,680.612 772.05,743.162c-431.996,553.787 -1390.48,-37.879 -1561.06,-813.146c-312.25,-1419.17 -18.687,-2134.12 703.734,-2832.4" style="fill:#8b5cf6;"/><g><clipPath id="_clip3"><path d="M7942.42,4372.58c52.508,1007.62 -473.6,1704.86 -335.875,2705.43c86.771,630.37 524.804,680.612 772.05,743.162c-431.996,553.787 -1390.48,-37.879 -1561.06,-813.146c-312.25,-1419.17 -18.687,-2134.12 703.734,-2832.4"/></clipPath><g clip-path="url(#_clip3)"><path d="M8161.54,7992.75c-423.3,8.592 -955.13,-475.758 -1087.14,-1049.42c-310.887,-1351.01 -569.108,-1354.45 -256.858,64.721c145.85,662.879 867.725,1191.53 1344,984.704Z" style="fill:#fda4af;"/></g></g><g><g id="EyeL"><path d="M6935.16,1886.29c-278.753,-19.727 -524.65,232.095 -548.78,562.003c-24.13,329.895 182.591,613.751 461.344,633.471c278.752,19.727 524.649,-232.102 548.78,-561.997c24.123,-329.901 -182.592,-613.757 -461.344,-633.477Z" style="fill:#4c1e96;"/><path d="M6902.61,1958.6c-262.022,-17.783 -492.657,202.631 -514.722,491.896c-22.057,289.265 172.766,538.553 434.788,556.336c262.022,17.777 492.664,-202.631 514.722,-491.902c22.057,-289.265 -172.759,-538.546 -434.788,-556.33Z" style="fill:#fbf2ea;"/><path d="M6864.21,2148.05c-190.651,-12.938 -359.318,158.712 -376.429,383.082c-17.111,224.362 123.778,417.024 314.428,429.963c190.644,12.938 359.319,-158.713 376.429,-383.082c17.111,-224.363 -123.784,-417.025 -314.428,-429.963Z" style="fill:#4c1e96;"/><path d="M6736.6,2262.59c57.102,20.563 -44.564,234.222 -115.589,199.994c-155.308,-74.858 34.48,-229.201 115.589,-199.994Z" style="fill:#fbf2ea;"/><path d="M6872.64,2595.23c34.256,11.348 -26.739,129.247 -69.353,110.356c-93.178,-41.302 20.685,-126.468 69.353,-110.356Z" style="fill:#fbf2ea;"/></g><g id="EyeL1" serif:id="EyeL"><path d="M4827.89,1902.74c-278.746,-19.727 -524.65,232.095 -548.773,562.003c-24.131,329.895 182.591,613.751 461.337,633.471c278.752,19.727 524.656,-232.102 548.78,-561.997c24.13,-329.901 -182.592,-613.757 -461.344,-633.477Z" style="fill:#4c1e96;"/><path d="M4876.28,1975.06c-262.023,-17.783 -492.664,202.631 -514.722,491.896c-22.064,289.265 172.759,538.553 434.781,556.336c262.022,17.777 492.664,-202.631 514.721,-491.902c22.058,-289.265 -172.758,-538.546 -434.78,-556.33Z" style="fill:#fbf2ea;"/><path d="M4837.95,2164.51c-190.644,-12.938 -359.319,158.712 -376.429,383.082c-17.111,224.362 123.784,417.024 314.428,429.963c190.644,12.938 359.318,-158.713 376.429,-383.082c17.111,-224.363 -123.784,-417.025 -314.428,-429.963Z" style="fill:#4c1e96;"/><path d="M4710.27,2279.04c57.101,20.563 -44.564,234.222 -115.589,199.994c-155.301,-74.858 34.479,-229.201 115.589,-199.994Z" style="fill:#fbf2ea;"/><path d="M4846.31,2611.68c34.255,11.348 -26.74,129.247 -69.353,110.356c-93.172,-41.302 20.691,-126.468 69.353,-110.356Z" style="fill:#fbf2ea;"/></g><path d="M5580.62,3195.02c0,-0 45.633,247.012 274.775,247.012c185.983,0 295.988,-247.012 295.988,-247.012" style="fill:none;stroke:#4c1e96;stroke-width:142.25px;"/></g><ellipse cx="4821.79" cy="3377.27" rx="284.008" ry="137.579" style="fill:#fda4af;"/><ellipse cx="6874.75" cy="3377.27" rx="284.008" ry="137.579" style="fill:#fda4af;"/><path d="M4927.75,899.004c2.579,4.963 5.667,9.692 7.742,14.879c9.166,22.925 4.833,43.842 4.058,47.584c-0.775,3.741 -5.104,24.645 -22.637,42.075c-6.009,5.979 -11.846,9.825 -12.963,10.562c-2.85,1.879 -2.838,1.896 -10.563,9.129c-9.658,9.046 -9.52,9.179 -16.82,15.892c-27.213,25.017 -39.413,37.983 -61.88,60.517c-32.929,33.02 -49.362,52.82 -64.104,68.829c-18.379,19.966 -17.908,20.379 -29.721,32.996c-16.3,17.412 -15.804,17.85 -27.1,29.27c-14.083,14.238 -13.779,14.513 -27.995,28.609c-13.25,13.146 -12.925,13.454 -25.3,25.383c-29.159,28.104 -39.521,40.175 -57.45,58.304c-5.817,5.884 -12.58,12.296 -54.317,57.609c-15.796,17.15 -27.213,30.379 -28.542,31.875c-5.562,6.258 -4.416,7.158 -10.15,13.279c-1.762,1.879 -11.083,11.825 -26.271,18.579c-4.862,2.162 -9.866,4.358 -15.145,5.042c-10.571,1.362 -21.325,1.741 -31.963,1.033c-5.462,-0.367 -10.754,-2.288 -15.875,-4.221c-16.071,-6.071 -26.371,-15.912 -28.304,-17.758c-17.738,-16.95 -22.504,-37.771 -23.354,-41.484c-0.854,-3.733 -5.617,-24.537 2.921,-47.77c0.608,-1.659 1.137,-1.409 9.458,-19.938c18.721,-41.712 31.842,-67.546 51.725,-103.271c9.129,-16.4 13.7,-24.762 32.546,-53.671c23.212,-35.612 32.441,-47.683 35.487,-51.666c23.054,-30.154 29.513,-36.925 36.175,-44.467c17.259,-19.525 17.342,-19.437 36.159,-37.446c5.433,-5.196 12.304,-12.412 43.087,-37.754c0.133,-0.112 11.129,-9.862 45.721,-34.6c40.342,-28.842 63.617,-42.862 69.333,-46.304c27.863,-16.783 50.904,-29.354 63.529,-36.121c11.709,-6.271 34.38,-16.875 34.605,-17.004c0.933,-0.546 1.804,-1.188 2.708,-1.783c28.65,-18.888 57.567,-12.896 62.554,-11.863c3.742,0.775 24.646,5.108 42.059,22.646c0.024,0.025 10.579,13.012 10.587,13.029Z" style="fill:#e2d9f1;"/></svg>