<?xml version="1.0" encoding="UTF-8" standalone="no"?><!DOCTYPE svg PUBLIC "-//W3C//DTD SVG 1.1//EN" "http://www.w3.org/Graphics/SVG/1.1/DTD/svg11.dtd"><svg width="100%" height="100%" viewBox="0 0 2386 2048" version="1.1" xmlns="http://www.w3.org/2000/svg" xmlns:xlink="http://www.w3.org/1999/xlink" xml:space="preserve" xmlns:serif="http://www.serif.com/" style="fill-rule:evenodd;clip-rule:evenodd;stroke-linecap:round;stroke-linejoin:round;stroke-miterlimit:1.5;"><rect id="Artboard1" x="-0" y="0" width="2385.51" height="2047.2" style="fill:none;"/><path d="M870.844,885.26c-13.475,-72.202 -29.301,-164.724 -29.301,-219.8c-0,-325.419 252.811,-589.084 563.515,-589.084c310.704,0 563.514,263.665 563.514,589.084c0,54.151 -15.266,144.458 -28.615,216.146l51.778,102.37c0.075,0.149 0.149,0.299 0.221,0.449c45.585,95.08 8.517,163.356 -23.227,223.793c-14.619,27.831 -28.934,53.054 -24.277,79.886c2.932,16.892 13.979,33.667 35.661,52.389c17.674,15.26 70.646,32.959 125.989,62.758c61.595,33.165 125.521,79.802 157.138,147.875c65.364,140.734 -13.887,262.376 -31.126,302.536c-4.032,9.391 -13.646,15.125 -23.825,14.209c-10.179,-0.917 -18.614,-8.275 -20.904,-18.236c-6.725,-29.263 -9.725,-63.302 -17.496,-96.912c-6.865,-29.696 -17.555,-59.204 -40.352,-83.548c-31.439,-33.573 -84.974,-56.41 -177.906,-60.422c-39.594,-1.709 -75.429,-13.769 -106.386,-34.85c-2.771,38.745 -2.137,78.984 3.729,121.604c7.362,53.478 25.961,87.582 49.805,109.729c37.087,34.449 85.254,40.696 117.88,48.951c7.737,1.957 13.963,7.69 16.551,15.24c2.588,7.55 1.189,15.896 -3.72,22.19c-48.07,61.621 -119.259,73.467 -190.796,50.247c-99.435,-32.277 -199.17,-134.945 -225.553,-254.856c-43.29,-196.752 -38.707,-338.792 4.572,-456.082c-64.669,15.138 -136.718,23.618 -212.655,23.618c-188.089,-0 -352.212,-52.547 -441.109,-128.907c-30.147,10.777 -66.477,23.832 -110.236,39.577c-147.356,53.017 -275.916,50.382 -362.167,8.084c-61.406,-30.112 -102.5,-79.964 -116.363,-145.045c-19.303,-90.612 -50.74,-139.428 -89.143,-164.767c-27.889,-18.401 -58.891,-24.039 -89.449,-25.884c-34.554,-2.087 -68.743,0.584 -98.821,-1.194c-10.22,-0.605 -18.887,-7.723 -21.466,-17.631c-2.579,-9.907 1.518,-20.348 10.146,-25.859c36.886,-23.557 144.141,-121.483 294.156,-80.507c72.595,19.829 129.294,74.948 172.287,129.994c38.63,49.46 64.894,98.592 82.916,113.439c22.105,18.21 40.548,26.298 57.755,26.42c27.302,0.192 49.905,-17.94 74.995,-36.857c30.048,-22.656 62.317,-47.437 102.285,-60.147Z" style="fill:#4c1e96;"/><path d="M912.218,982.632c0,-19.75 -47.053,-223.54 -47.053,-317.172c-0,-312.087 241.918,-565.462 539.893,-565.462c297.975,0 539.892,253.375 539.892,565.462c0,93.632 -47.053,297.422 -47.053,317.172c-0,137.035 -220.834,248.29 -492.839,248.29c-272.006,-0 -492.84,-111.255 -492.84,-248.29Z" style="fill:#8b5cf6;"/><path d="M979.858,908.151c-184.209,-52.737 -220.839,179.803 -359.069,65.924c-37.353,-30.772 -111.212,-201.949 -246.407,-238.877c-140.66,-38.421 -240.632,55.541 -275.218,77.629c100.291,5.929 246.275,-37.581 299.122,210.505c30.81,144.631 214.288,203.537 447.43,119.654c330.051,-118.75 237.666,-84.593 256.835,-73.61" style="fill:#8b5cf6;"/><clipPath id="_clip1"><path d="M979.858,908.151c-184.209,-52.737 -220.839,179.803 -359.069,65.924c-37.353,-30.772 -111.212,-201.949 -246.407,-238.877c-140.66,-38.421 -240.632,55.541 -275.218,77.629c100.291,5.929 246.275,-37.581 299.122,210.505c30.81,144.631 214.288,203.537 447.43,119.654c330.051,-118.75 237.666,-84.593 256.835,-73.61"/></clipPath><g clip-path="url(#_clip1)"><path d="M160.218,770.901c96.708,-0.662 217.506,-9.862 264.538,189.972c30.81,130.907 214.288,184.223 447.43,108.3c80.389,-26.179 137.2,-21.708 146.271,-8.799c8.098,11.521 -17.083,26.608 -172.741,82.612c-233.142,83.883 -416.62,24.977 -447.43,-119.654c-52.847,-248.086 -198.831,-204.576 -299.122,-210.505c12.368,-7.898 33.095,-24.987 61.054,-41.926Z" style="fill:#fda4af;"/></g><path d="M1970.66,994.637c82.614,172.313 -141.527,246.699 -5.981,363.735c36.628,31.626 218.267,75.947 277.141,202.705c61.253,131.881 -15.254,245.633 -31.409,283.267c-22.426,-97.575 -3.456,-248.214 -257.758,-259.191c-148.255,-6.399 -236.855,-176.976 -192.309,-419.928c63.062,-343.94 48.982,-448.506 59.429,-468.902" style="fill:#8b5cf6;"/><clipPath id="_clip2"><path d="M1970.66,994.637c82.614,172.313 -141.527,246.699 -5.981,363.735c36.628,31.626 218.267,75.947 277.141,202.705c61.253,131.881 -15.254,245.633 -31.409,283.267c-22.426,-97.575 -3.456,-248.214 -257.758,-259.191c-148.255,-6.399 -236.855,-176.976 -192.309,-419.928c63.062,-343.94 48.982,-448.506 59.429,-468.902"/></clipPath><g clip-path="url(#_clip2)"><path d="M2241.83,1777.43c-15.31,-95.143 -26.145,-215.368 -231.723,-228.596c-134.669,-8.665 -217.736,-180.164 -181.07,-421.802c23.927,-157.687 -35.239,-111.171 -68.697,38.197c-53.993,241.043 44.054,413.529 192.309,419.928c254.302,10.977 235.332,161.616 257.758,259.191c5.777,-13.457 19.27,-36.647 31.423,-66.918Z" style="fill:#fda4af;"/></g><path d="M1906.18,1049.42c12.602,241.828 -113.664,409.166 -80.61,649.303c20.825,151.289 125.953,163.347 185.292,178.359c-103.679,132.909 -333.716,-9.091 -374.654,-195.155c-74.94,-340.6 -4.485,-512.189 168.896,-679.777" style="fill:#8b5cf6;"/><clipPath id="_clip3"><path d="M1906.18,1049.42c12.602,241.828 -113.664,409.166 -80.61,649.303c20.825,151.289 125.953,163.347 185.292,178.359c-103.679,132.909 -333.716,-9.091 -374.654,-195.155c-74.94,-340.6 -4.485,-512.189 168.896,-679.777"/></clipPath><g clip-path="url(#_clip3)"><path d="M1958.77,1918.26c-101.592,2.062 -229.231,-114.182 -260.913,-251.862c-74.613,-324.243 -136.586,-325.067 -61.646,15.533c35.004,159.091 208.254,285.967 322.559,236.329Z" style="fill:#fda4af;"/></g><g><g id="EyeL"><path d="M1620.73,564.904c-41.021,-2.903 -77.207,34.155 -80.758,82.704c-3.551,48.547 26.87,90.319 67.891,93.221c41.021,2.903 77.207,-34.156 80.758,-82.703c3.55,-48.548 -26.87,-90.32 -67.891,-93.222Z" style="fill:#4c1e96;"/><path d="M1615.94,575.546c-38.559,-2.617 -72.499,29.819 -75.746,72.387c-3.246,42.568 25.424,79.253 63.983,81.87c38.559,2.616 72.5,-29.819 75.746,-72.388c3.246,-42.568 -25.423,-79.252 -63.983,-81.869Z" style="fill:#fbf2ea;"/><path d="M1610.29,603.425c-28.056,-1.904 -52.877,23.356 -55.395,56.374c-2.518,33.017 18.215,61.369 46.271,63.273c28.055,1.904 52.877,-23.356 55.395,-56.374c2.518,-33.017 -18.216,-61.369 -46.271,-63.273Z" style="fill:#4c1e96;"/><path d="M1591.51,620.28c8.403,3.026 -6.558,34.468 -17.01,29.431c-22.855,-11.016 5.074,-33.729 17.01,-29.431Z" style="fill:#fbf2ea;"/><path d="M1611.53,669.231c5.041,1.67 -3.935,19.02 -10.206,16.24c-13.712,-6.078 3.044,-18.611 10.206,-16.24Z" style="fill:#fbf2ea;"/></g><g id="EyeL1" serif:id="EyeL"><path d="M1193.57,564.904c-41.02,-2.903 -77.207,34.155 -80.757,82.704c-3.551,48.547 26.87,90.319 67.89,93.221c41.021,2.903 77.208,-34.156 80.758,-82.703c3.551,-48.548 -26.87,-90.32 -67.891,-93.222Z" style="fill:#4c1e96;"/><path d="M1200.69,575.546c-38.559,-2.617 -72.5,29.819 -75.746,72.387c-3.247,42.568 25.423,79.253 63.982,81.87c38.559,2.616 72.5,-29.819 75.746,-72.388c3.246,-42.568 -25.423,-79.252 -63.982,-81.869Z" style="fill:#fbf2ea;"/><path d="M1195.05,603.425c-28.055,-1.904 -52.877,23.356 -55.395,56.374c-2.518,33.017 18.216,61.369 46.271,63.273c28.055,1.904 52.877,-23.356 55.395,-56.374c2.518,-33.017 -18.216,-61.369 -46.271,-63.273Z" style="fill:#4c1e96;"/><path d="M1176.26,620.28c8.403,3.026 -6.558,34.468 -17.01,29.431c-22.854,-11.016 5.074,-33.729 17.01,-29.431Z" style="fill:#fbf2ea;"/><path d="M1196.28,669.231c5.041,1.67 -3.935,19.02 -10.206,16.24c-13.711,-6.078 3.045,-18.611 10.206,-16.24Z" style="fill:#fbf2ea;"/></g><path d="M1339.35,766.805c0,0 10.952,59.283 65.946,59.283c44.636,-0 71.037,-59.283 71.037,-59.283" style="fill:none;stroke:#4c1e96;stroke-width:34.14px;"/></g><ellipse cx="1157.23" cy="810.545" rx="68.162" ry="33.019" style="fill:#fda4af;"/><ellipse cx="1649.94" cy="810.545" rx="68.162" ry="33.019" style="fill:#fda4af;"/><path d="M1182.66,215.761c0.619,1.191 1.36,2.326 1.858,3.571c2.2,5.502 1.16,10.522 0.974,11.42c-0.186,0.898 -1.225,5.915 -5.433,10.098c-1.442,1.435 -2.843,2.358 -3.111,2.535c-0.684,0.451 -0.681,0.455 -2.535,2.191c-2.318,2.171 -2.285,2.203 -4.037,3.814c-6.531,6.004 -9.459,9.116 -14.851,14.524c-7.903,7.925 -11.847,12.677 -15.385,16.519c-4.411,4.792 -4.298,4.891 -7.133,7.919c-3.912,4.179 -3.793,4.284 -6.504,7.025c-3.38,3.417 -3.307,3.483 -6.719,6.866c-3.18,3.155 -3.102,3.229 -6.072,6.092c-6.998,6.745 -9.485,9.642 -13.788,13.993c-1.396,1.412 -3.019,2.951 -13.036,13.826c-3.791,4.116 -6.531,7.291 -6.85,7.65c-1.335,1.502 -1.06,1.718 -2.436,3.187c-0.423,0.451 -2.66,2.838 -6.305,4.459c-1.167,0.519 -2.368,1.046 -3.635,1.21c-2.537,0.327 -5.118,0.418 -7.671,0.248c-1.311,-0.088 -2.581,-0.549 -3.81,-1.013c-3.857,-1.457 -6.329,-3.819 -6.793,-4.262c-4.257,-4.068 -5.401,-9.065 -5.605,-9.956c-0.205,-0.896 -1.348,-5.889 0.701,-11.465c0.146,-0.398 0.273,-0.338 2.27,-4.785c4.493,-10.011 7.642,-16.211 12.414,-24.785c2.191,-3.936 3.288,-5.943 7.811,-12.881c5.571,-8.547 7.786,-11.444 8.517,-12.4c5.533,-7.237 7.083,-8.862 8.682,-10.672c4.142,-4.686 4.162,-4.665 8.678,-8.987c1.304,-1.247 2.953,-2.979 10.341,-9.061c0.032,-0.027 2.671,-2.367 10.973,-8.304c9.682,-6.922 15.268,-10.287 16.64,-11.113c6.687,-4.028 12.217,-7.045 15.247,-8.669c2.81,-1.505 8.251,-4.05 8.305,-4.081c0.224,-0.131 0.433,-0.285 0.65,-0.428c6.876,-4.533 13.816,-3.095 15.013,-2.847c0.898,0.186 5.915,1.226 10.094,5.435c0.006,0.006 2.539,3.123 2.541,3.127Z" style="fill:#e2d9f1;"/></svg>