<?xml version="1.0" encoding="UTF-8" standalone="no"?><!DOCTYPE svg PUBLIC "-//W3C//DTD SVG 1.1//EN" "http://www.w3.org/Graphics/SVG/1.1/DTD/svg11.dtd"><svg width="100%" height="100%" viewBox="0 0 573 573" version="1.1" xmlns="http://www.w3.org/2000/svg" xmlns:xlink="http://www.w3.org/1999/xlink" xml:space="preserve" xmlns:serif="http://www.serif.com/" style="fill-rule:evenodd;clip-rule:evenodd;stroke-linejoin:round;stroke-miterlimit:2;"><rect id="Artboard1" x="0" y="0" width="572.522" height="572.522" style="fill:none;"/><path d="M54.845,365.299l-0.001,0c-2.051,-1.734 -3.908,-4.133 -5.594,-6.224l-1.261,-2.139l-0.587,-2.361l0.103,-2.431l0.808,-2.348l0.56,-0.82c-0.067,-0.113 -0.133,-0.227 -0.197,-0.342c-0.758,-1.354 -1.598,-2.362 -2.636,-3.511l-0.601,-0.654l-1.008,-1.342l-0.719,-1.493l-0.117,-0.448c-0.78,-0.7 -1.561,-1.61 -2.451,-2.911l-1.099,-2.264l-0.391,-2.434l0.322,-2.445l0.447,-0.993c-1.26,-2.162 -1.982,-4.5 -1.99,-6.987l0.387,-2.571l1.111,-2.287l1.735,-1.86l1.132,-0.644l0.013,-0.705l0.35,-1.609l0.643,-1.496l0.915,-1.348l1.168,-1.16l1.398,-0.93l0.342,-0.139l-0.217,-1.587l0.438,-2.576l0.3,-0.902l0.932,-1.938l1.362,-1.621l1.027,-0.739l-0.042,-0.483l0.562,-2.51l1.284,-2.229l0.927,-0.851c0.522,-1.11 1.199,-2.233 2,-3.323c0.755,-1.027 1.637,-2.038 2.449,-2.969c3.204,-12.889 10.245,-26.469 16.159,-38.223c2.892,-5.751 14.558,-25.472 21.156,-38.969c1.515,-3.098 2.749,-5.821 3.456,-7.878l0.235,-0.681c-0.201,-0.916 -0.764,-2.259 -1.355,-3.855c-2.575,-6.959 -6.898,-16.561 -8.299,-20.856l-0.001,-0.002c0,0 0.519,1.524 0.02,0.058c0.657,1.944 -0.02,-0.058 -0.02,-0.058c-4.896,-15.014 -9.627,-30.842 -12.373,-46.406c-3.925,-22.261 -4.791,-67.156 4.396,-87.247l1.523,-2.275l2.107,-1.644l2.512,-0.912l2.736,-0.082c36.001,4.742 66.349,19.246 97.623,36.601l0.205,0.158c5.403,-2.286 11.651,-3.246 17.435,-3.536c4.37,-0.219 8.625,0.176 12.788,1.029c-7.302,-6.821 -16.131,-13.207 -21.719,-16.36l-1.535,-1.107l-1.24,-1.4l-0.906,-1.636l-0.532,-1.817l-0.118,-1.889l0.295,-1.847l0.689,-1.738l1.067,-1.564c5.204,-6.057 7.994,-8.128 16.11,-8.55c10.078,-0.525 24.569,4.577 39.583,12.186c20.256,10.266 41.845,24.74 53.751,31.408c8.877,4.972 18.548,8.998 27.931,12.924c2.319,0.971 5.361,2.456 8.347,3.303c0.889,0.252 1.74,0.565 2.496,0.434l0.001,0c0,0 0.757,-0.13 0,0c2.175,-0.376 5.756,-2.118 10.02,-4.268c12.222,-6.162 28.572,-16.106 35.724,-19.783c12.082,-6.214 41.34,-19.047 64.112,-26.104c10.617,-3.29 19.97,-5.27 25.969,-5.191c5.276,0.069 9.923,1.536 13.852,5.199c4.702,4.385 7.962,11.434 9.792,19.491c2.259,9.939 2.532,21.439 2.583,29.011c0.17,25.548 -11.418,70.323 -18.158,95.181c-0.895,3.301 -2.499,7.052 -3.904,10.807c-0.922,2.463 -1.859,4.894 -1.849,7.095l0,0.001c0.007,1.54 0.776,3.408 1.581,5.401c1.899,4.706 4.554,9.679 6.003,13.312c2.913,7.304 10.477,27.771 14.601,42.52c2.062,7.376 3.174,13.566 3.016,16.758l-0.297,1.852l-0.685,1.723l-0.385,0.568c0.698,0.377 1.359,0.789 1.979,1.234c2.392,0.528 4.787,0.977 7.207,1.394c0.021,0.003 0.655,0.113 0.655,0.113l1.644,0.485l1.481,0.782l1.277,1.033l1.045,1.245l0.791,1.419l0.511,1.561l0.182,1.483c1.803,0.208 2.739,0.576 3.763,1.136c0.864,0.473 1.888,1.179 3.363,2.783l1.289,1.837l0.757,2.073l0.201,2.197l-0.38,2.212c-0.828,2.657 -2.288,4.566 -4.236,6.003l0.822,0.1l1.731,0.607l1.561,0.964l1.333,1.291l1.023,1.549l0.658,1.712l0.277,1.814l-0.12,1.852c-0.031,0.174 -0.071,0.346 -0.121,0.515l-0.266,0.893c-0.102,0.345 -0.245,0.676 -0.424,0.988l-0.518,0.899c-0.087,0.151 -0.182,0.296 -0.286,0.436c-0.353,0.478 -1.216,1.444 -2.557,2.613c-0.585,0.509 -1.332,1.129 -2.17,1.814l0.488,0.847l0.569,2.501l-0.188,2.503l-0.907,2.341l-1.59,2.013c-0.684,0.639 -1.41,1.277 -2.161,1.917l0.022,0.039l0.488,1.398l0.237,1.438l-0.01,1.446l-0.253,1.423l-0.495,1.372l-0.734,1.285l-0.965,1.159c-2.872,2.888 -10.111,7.641 -15.848,11.979c-0.819,0.62 -1.601,1.227 -2.313,1.816l0.231,1.594l-0.472,2.647l-1.272,2.37l-2.002,1.895c-2.752,1.865 -6.565,3.294 -10.401,4.727l-0.045,1.671l-0.62,2.115l-1.166,1.915c-1.375,1.706 -3.566,3.375 -6.159,4.761c-2.041,1.09 -4.424,2.013 -5.966,2.952c-6.454,3.939 -11.863,9.575 -18.349,13.4c-7.687,4.535 -16.551,8.669 -26.263,12.407l0.877,1.494l0.597,2.22c0.426,3.318 -0.13,6.076 -1.069,8.649c-0.283,0.775 -0.636,1.514 -0.97,2.261c-0.195,0.434 -0.438,0.855 -0.453,1.372l-0.323,1.73l1.266,-0.056l2.153,0.477l1.959,1.012l1.658,1.508c0.142,0.168 0.28,0.34 0.424,0.507c4.076,4.67 13.304,9.585 20.614,14.753c6.957,4.92 12.317,10.329 14.104,15.209l0.418,1.607l0.099,1.62l-0.203,1.582l-0.488,1.501l-0.755,1.386l-0.112,0.138c6.532,5.402 14.866,12.434 20.65,18.332c3.376,3.443 5.955,6.637 7.312,9.08c1.201,2.163 1.721,4.13 1.838,5.714l-0.107,2.116l-0.613,1.996l-1.078,1.788l-1.505,1.492l-0.976,0.751l-1.751,1.043l-1.921,0.592l-2.006,0.127l-2.006,-0.354c-2.747,-0.831 -7.527,-4.488 -13.155,-9.266c-3.073,-2.608 -6.607,-5.589 -10.445,-7.988l-1.706,1.322l-1.644,0.999l-1.803,0.6l-1.892,0.187l-1.908,-0.242l-2.503,-0.609l-0.231,0.216l-1.98,1.049l-2.225,0.502l-1.569,-0.007l-0.991,-0.187l-1.179,0.516c-4.35,1.25 -8.957,1.501 -13.633,1.157l-0.002,0.404l-0.319,2.253l-0.883,2.056l-1.386,1.755l-1.829,1.354c-2.791,1.538 -5.719,1.822 -8.687,1.366l-0.131,0.187l-1.662,1.406l-1.997,0.951c-2.34,0.761 -3.809,0.935 -5.237,0.855c-0.929,-0.053 -1.895,-0.202 -3.078,-0.613l-0.985,0.35l-1.378,0.246l-1.398,0.018l-1.392,-0.213l-0.665,-0.219c-1.438,0.196 -2.798,0.175 -4.107,0.001l-0.48,0.482l-1.724,1.054l-1.923,0.62l-2.044,0.148c-1.297,-0.062 -2.511,-0.238 -3.684,-0.5l-0.581,0.31c-3.051,1.2 -7.734,2.083 -11.726,1.734c-1.449,1.016 -3.103,1.97 -4.891,2.825c-4.582,2.192 -10.1,3.858 -13.691,4.915c-0.351,0.111 -0.542,0.252 -0.841,0.474l-2.405,1.246l-2.674,0.43l-15.637,-0l-1.41,-0.118l-1.349,-0.34l-2.406,-1.283l-1.88,-1.975l-0.132,-0.23c-1.285,0.824 -2.563,1.659 -3.834,2.508l-2.264,1.07l-2.477,0.368l-94.86,-0l-2.496,-0.374l-2.278,-1.086c-1.123,-0.758 -2.228,-1.546 -3.324,-2.349l-0.808,1.076l-1.325,1.162l-1.519,0.858l-1.662,0.53l-1.754,0.183l-46.229,-0l-2.486,-0.37l-2.27,-1.078c-3.424,-2.297 -5.672,-4.079 -7.259,-8.122l-0.046,-0.186c-2.325,0.608 -4.581,1.288 -6.625,1.818l-1.684,0.261l-1.685,-0.077l-1.637,-0.406l-1.54,-0.729l-0.95,-0.572l-1.306,-0.967l-1.078,-1.17l-0.829,-1.325l-0.57,-1.439l-0.302,-1.518l-0.021,-1.563l0.104,-0.595l-4.308,1.612l-1.981,0.481l-2.01,0.001l-1.955,-0.469l-1.814,-0.929l-0.631,-0.425l-1.477,-1.26l-1.141,-1.541l-0.769,-1.757l-0.359,-1.908l0.064,-1.506c-3.526,1.17 -7.03,2.389 -10.587,3.815l-1.499,0.447l-1.525,0.165l-1.505,-0.107l-1.45,-0.365l-1.364,-0.613l-1.247,-0.849l-1.093,-1.075l-0.899,-1.281l-0.651,-1.423l-0.375,-1.487l-0.077,-1.122c-0.218,0.042 -0.43,0.079 -0.638,0.111l-2.363,0.467l-1.504,0.161l-1.047,-0.074l-1.188,0.567l-1.564,0.41l-2.319,0.059l-2.211,-0.552l-1.986,-1.118l-1.645,-1.635c-2.802,-3.671 -3.615,-4.606 -3.899,-9.307l0.229,-2.54l0.969,-2.36c2.022,-3.377 5.434,-5.515 8.057,-8.402c1.034,-1.141 2.047,-2.132 3.205,-3.143l1.166,-0.855l1.272,-0.638l0.467,-0.103c0.346,-0.362 0.708,-0.721 1.093,-1.082c0.973,-1.533 5.079,-5.107 5.684,-5.769l0.185,-0.347l0.85,-1.112l1.023,-0.959l0.81,-0.541c-0.073,-1.261 -0.025,-2.664 0.309,-4.289l0.565,-1.758l0.918,-1.578l1.232,-1.347l1.509,-1.064c0.15,-0.083 0.301,-0.163 0.454,-0.24l0.484,-1.063c3.035,-4.768 7.236,-7.917 11.886,-10.679c0.767,-2.517 1.048,-5.364 1.574,-7.817l0.846,-2.285l1.424,-1.92l1.901,-1.449l2.274,-0.877l0.227,-0.019c-0.548,-1.685 -0.642,-3.041 -0.577,-4.258c0.097,-1.791 0.641,-3.403 1.878,-5.864l1.341,-1.941l1.742,-1.442c-17.412,-7.724 -34.086,-17.05 -49.331,-28.257c-1.841,-1.352 -4.975,-3.31 -7.536,-5.369c-2.666,-2.145 -4.757,-4.535 -5.836,-6.628c-0.152,-0.147 -0.482,-0.464 -0.683,-0.654c-1.145,-1.082 -2.38,-2.156 -3.311,-3.163c-0.989,-1.07 -1.755,-2.148 -2.28,-3.15c-0.071,-0.137 -0.136,-0.277 -0.194,-0.421l-0.506,-1.259c-0.114,-0.284 -0.2,-0.579 -0.255,-0.88l-0.193,-1.042c-0.026,-0.142 -0.046,-0.286 -0.059,-0.43l0.018,-1.333c-1.424,-0.863 -2.686,-1.661 -3.51,-2.342c1.481,1.209 -0.075,-0.063 -0.075,-0.063Zm38.47,143.754c0,0 -0.281,0.047 -0.033,0.006l0.033,-0.006Zm6.56,-39.779c-0.005,0.005 -0.015,0.004 -0.018,0.008l-0.004,0.013l0.022,-0.021Zm0,0l0,0c0,0 0,0 0,0Z" style="fill:#431407;"/><g><path d="M503.188,296.904c3.391,0.814 6.779,1.458 10.218,2.043l-0.52,-0.098l-0.42,2.567c-2.043,0.866 -4.092,1.824 -6.173,2.589c-0.469,-0.579 -0.948,-1.152 -1.386,-1.755c-1.263,-1.731 -2.055,-3.185 -1.719,-5.346Z" style="fill:#f1d7c1;fill-rule:nonzero;"/><path d="M122.081,494.805l0.938,0.392c1.579,-0.719 2.528,-1.602 4.244,-1.112c-0.644,1.406 -1.379,2.239 -2.337,3.432c-1.118,1.406 -2.025,2.386 -2.443,4.168c-0.177,0.098 -0.335,0.228 -0.53,0.294c-6.61,2.19 -12.959,4.134 -19.481,6.749c1.537,-1.193 3.155,-2.369 4.438,-3.857c4.195,-4.821 9.088,-8.007 15.171,-10.066Z" style="fill:#fdba74;fill-rule:nonzero;"/><path d="M334.807,530.039c11.535,-6.946 22.487,-15.444 34.341,-21.752c-0.215,0.36 -0.414,0.735 -0.641,1.095c-3.427,5.409 -11.59,5.36 -12.491,12.584c0.718,1.536 0.891,2.516 2.277,3.53c3.793,-2.37 6.968,-4.772 10.261,-7.796c1.832,-0.098 2.229,-0.049 3.789,1.063c0.156,0.098 0.282,0.261 0.423,0.392c-3.051,4.429 -13.44,7.501 -18.828,9.086c-1.465,0.441 -2.28,0.899 -3.494,1.798l-15.637,-0Z" style="fill:#fdba74;fill-rule:nonzero;"/><path d="M99.092,481.686c1.502,-1.191 4.493,-4.513 4.708,-4.664c5.794,-4.049 2.61,-5.185 3.48,-9.411c2.221,-1.231 5.587,-0.615 8.094,-0.476c0.016,-1.744 -3.257,-1.585 -4.092,-3.71c2.808,-4.41 7.057,-6.849 11.484,-9.321c1.796,-3.498 2.296,-8.121 3.121,-11.968c4.805,6.181 8.613,15.337 13.113,22.226c-4.929,4.947 -17.47,3.826 -19.655,10.956l0.652,1.222c1.525,0.111 2.607,0.026 4.07,-0.33c1.691,-0.413 2.637,-0.232 4.314,0.307l0.165,0.942c-5.939,3.428 -15.73,4.134 -20.449,9.052l-3.038,2.15l-2.162,0.754l-1.03,2.333c-2.152,0.752 -3.419,0.246 -5.637,-0.163l1.494,2.778c-1.002,3.024 -4.401,3.399 -5.855,6.276l-2.563,0.506c-1.448,-0.915 -2.379,-1.372 -4.08,-1.618c-0.164,0.442 -0.334,0.867 -0.492,1.308c-0.157,0.441 -0.299,0.882 -0.45,1.324c-1.422,-1.863 -2.02,-2.256 -2.164,-4.642c1.733,-2.892 4.807,-4.576 7.06,-7.056c0.804,-0.888 1.592,-1.657 2.493,-2.444l1.229,0.706c1.188,-1.753 2.217,-2.954 3.85,-4.353c0.691,-1.29 1.162,-1.747 2.34,-2.684Z" style="fill:#c2410c;fill-rule:nonzero;"/><path d="M429.669,449.132l0.978,-0.173c0.169,0.199 0.334,0.404 0.505,0.601c7.327,8.407 29.763,18.067 33.145,27.297c-1.21,0.522 -2.174,0.625 -3.463,0.757c-1.515,0.155 -2.243,0.255 -3.395,1.35l-0.503,1.984c6.275,5.496 35.115,27.715 35.621,34.562l-0.975,0.752c-5.396,-1.634 -19.32,-19.153 -34.524,-21.588l-1.253,1.928c-1.043,-1.438 -0.471,-0.866 -1.904,-1.928c-4.981,-3.71 -9.418,-7.961 -14.61,-11.432c-5.712,-3.821 -11.923,-6.88 -17.632,-10.683c-2.265,-1.51 -3.965,-3.442 -6.4,-4.754c0.844,-4.808 8.041,-10.278 10.154,-15.097c0.958,-2.178 2.157,-2.53 4.256,-3.576Z" style="fill:#c2410c;fill-rule:nonzero;"/><path d="M415.259,467.805c2.435,1.312 4.135,3.244 6.4,4.754c5.709,3.803 11.92,6.862 17.632,10.683c5.192,3.471 9.629,7.722 14.61,11.432c1.433,1.062 0.861,0.49 1.904,1.928c1.477,0.736 3.831,1.455 4.751,2.795l-0.039,0.85l-1.942,1.503l-7.648,-1.863c-1.291,1.079 -1.432,1.34 -2.059,2.811c-1.453,-2.223 -0.527,-4.069 -2.532,-5.932l-0.954,0.212l-0.105,0.964c-0.248,2.108 -0.224,3.759 -1.757,5.377c-10.639,3.056 -23.049,-1.438 -33.498,-3.824c4.61,3.399 11.139,7.321 13.69,12.583l-0.007,0.948c-3.352,1.847 -7.29,-2.042 -10.291,0.18l-0.707,3.089c-1.909,0.621 -2.323,0.686 -4.246,-0.327c-1.36,-0.719 -2.69,-1.912 -3.912,-2.844l-1.506,0.131l1.537,2.811l-0.718,0.686l-1.474,-1.013c-0.359,0.131 -0.717,0.245 -1.079,0.36c-4.677,1.454 -7.553,-2.419 -12.008,-1.422l-0.129,0.637l2.886,2.386l-0.714,0.915c-2.737,-0.13 -4.913,-1.095 -7.415,-2.091c0.026,0.425 0.141,0.833 0.077,1.258c-0.067,0.425 -0.305,0.817 -0.459,1.226c-2.576,1.013 -7.045,2.01 -9.657,0.751c-0.384,-0.196 -0.748,-0.408 -1.124,-0.604c-0.141,-0.131 -0.267,-0.294 -0.423,-0.392c-1.56,-1.112 -1.957,-1.161 -3.789,-1.063c-3.293,3.024 -6.468,5.426 -10.261,7.796c-1.386,-1.014 -1.559,-1.994 -2.277,-3.53c0.901,-7.224 9.064,-7.175 12.491,-12.584c0.227,-0.36 0.426,-0.735 0.641,-1.095c0.438,-0.67 31.073,-25.801 34.301,-28.217c1.542,-1.157 2.273,-1.856 3.169,-3.595c1.805,-1.394 3.675,-2.092 4.064,-4.406l-1.319,-1.579c3.172,-1.103 2.987,0.11 5.896,-2.685Z" style="fill:#fed7aa;fill-rule:nonzero;"/><path d="M139,464.362c0.218,3.206 0.425,3.451 2.764,5.545c0.24,0.216 0.5,0.41 0.747,0.616c6.514,5.442 12.487,12.618 18.545,18.629c10.018,9.957 20.536,19.358 31.556,28.205c5.344,4.265 10.709,8.318 16.376,12.142l0.041,0.54l-46.229,-0c-1.827,-1.226 -3.221,-1.994 -4.068,-4.151c0.327,-2.321 1.839,-3.465 3.411,-5.066l0.765,-0.768l-0.159,-1.046c-6.476,-0.916 -14.532,1.748 -20.776,3.366l-0.95,-0.572l0.649,-1.324c1.029,-0.61 2.045,-1.242 3.048,-1.895c2.138,-1.406 3.604,-2.517 4.179,-5.148c-0.809,-1.209 -0.753,-1.438 -2.177,-2.059c-4.202,-1.88 -10.52,-1.308 -14.721,0.278l-6.684,2.5l-0.631,-0.425c3.116,-2.827 9.956,-6.39 11.711,-9.871c-0.335,-0.392 -0.598,-0.866 -1.007,-1.193c-3.155,-2.484 -9.292,-1.928 -12.907,-0.98c0.418,-1.782 1.325,-2.762 2.443,-4.168c0.958,-1.193 1.693,-2.026 2.337,-3.432c-1.716,-0.49 -2.665,0.393 -4.244,1.112l-0.938,-0.392l1.271,-2.697l-0.995,-0.932c-2.683,0.115 -4.986,0.948 -6.81,2.991c-0.546,0.621 -0.954,1.34 -1.508,1.945c-0.224,0.245 -0.515,0.425 -0.773,0.621l-1.393,-2.108c-3.342,-0.458 -14.154,5.197 -20.004,6.014c1.454,-2.877 4.853,-3.252 5.855,-6.276l-1.494,-2.778c2.218,0.409 3.485,0.915 5.637,0.163l1.03,-2.333l2.162,-0.754l3.038,-2.15c4.719,-4.918 14.51,-5.624 20.449,-9.052l-0.165,-0.942c-1.677,-0.539 -2.623,-0.72 -4.314,-0.307c-1.463,0.356 -2.545,0.441 -4.07,0.33l-0.652,-1.222c2.185,-7.13 14.726,-6.009 19.655,-10.956Z" style="fill:#fed7aa;fill-rule:nonzero;"/><path d="M212.713,521.149c-26.261,-21.867 -50.832,-36.371 -70.032,-65.82c-2.746,-4.211 -6.895,-10.271 -7.786,-15.249c-0.237,-1.332 0.695,-1.85 1.474,-2.842c-1.011,-1.873 -2.933,-3.49 -3.749,-5.337c-0.892,-2.017 -0.376,-2.612 0.52,-4.393c4.014,-0.025 7.735,3.889 11.758,4.77c5.166,1.133 9.912,3.319 14.957,4.782c7.864,2.282 16.216,3.841 24.263,5.375c4.454,0.85 13.192,0.02 16.632,1.96c0.623,0.351 3.739,2.507 3.739,2.507c9.951,-0.045 22.829,2.652 32.458,5.337c2.87,0.801 3.458,-1.584 6.099,-1.678l1.188,2.207l3.055,0.571c4.917,-3.795 11.559,-4.086 17.496,-4.1c1.132,1.372 2.026,2.57 3.508,3.59l2.854,-2.605c2.701,-0.418 6.169,1.052 8.808,1.927c11.563,3.829 48.685,-3.133 62.556,-4.908c7.972,-2.227 16.594,-1.405 24.7,-2.861c0.399,-1.844 0.116,-0.958 0.838,-2.663c4.509,-0.586 7.887,-1.516 12.166,-2.951l1.098,-0.361c13.51,-4.238 29.053,-5.276 42.013,-11.272l1.155,0.451c0.572,4.452 -2.444,6.982 -2.557,10.953l-0.492,0.642c-0.152,0.352 -0.311,0.7 -0.458,1.053c-0.836,2.002 -0.287,0.564 -0.732,2.188c-0.884,3.228 -3.397,5.787 -4.193,9.093c-4.54,3.285 -5.272,9.389 -9.654,12.469c-0.184,1.296 -0.222,2.406 -0.124,3.712c-2.278,1.817 -1.533,3.492 -3.507,5.329l-2.19,0.328c-0.147,0.363 -0.278,0.734 -0.438,1.09c-1.028,2.277 -3.517,3.597 -5.252,5.31c-22.007,21.719 -50.503,33.371 -75.829,50.286l-94.86,-0c-2.858,-1.929 -5.596,-4.069 -8.367,-6.129l-3.115,-2.761Z" style="fill:#15803d;fill-rule:nonzero;"/><path d="M176.071,469.052c1.394,-0.003 2.974,1.791 3.758,3.871c0.42,1.114 9.05,0.268 11.742,2.201l-0.244,1.003c0,0 -5.944,-0.747 -9.673,0.515c-2.446,0.828 -2.099,3.811 -3.561,4.21c-1.461,0.398 -3.296,-0.633 -5.209,-1.819c-1.221,-2.11 -1.991,-3.428 -1.423,-6.096c0.674,-3.182 3.215,-3.883 4.61,-3.885Z" style="fill:#fbf2ea;fill-rule:nonzero;"/><path d="M201.428,48.102c3.289,-3.827 4.951,-5.321 10.079,-5.588c22.531,-1.175 68.988,31.466 88.718,42.517c9.158,5.13 19.127,9.3 28.808,13.352c4.305,1.801 10.888,5.087 15.593,4.273c8.919,-1.541 37.96,-19.609 48.194,-24.871c16.889,-8.686 68.079,-30.588 86.064,-30.351c3.084,0.04 5.847,0.766 8.143,2.907c9.056,8.444 9.582,30.495 9.66,42.315c0.167,24.941 -11.281,68.624 -17.86,92.891c-1.666,6.143 -6.078,13.928 -6.05,20.173c0.026,6.045 5.782,15.798 8.19,21.838c4.078,10.222 17.462,46.761 17.021,55.695c-6.825,5.145 -15.935,-0.274 -25.365,10.827c-2.326,-0.678 -3.747,-0.469 -6.091,-0.137c-10.031,-19.492 -21.85,-51.353 -36.216,-66.761c-0.932,3.512 -2.014,6.902 -2.025,10.563c-0.878,-0.432 -1.706,-1.048 -2.528,-1.579c0.041,-0.793 0.106,-0.979 -0.159,-1.852c-0.91,-2.995 -4.025,-6.787 -5.607,-9.585c-10.122,-17.896 -20.596,-32.304 -39.549,-41.593c-14.621,-7.166 -31.122,-7.978 -46.481,-2.703c-17.465,5.481 -29.383,16.681 -37.855,32.746c-4.751,9.009 -9.531,28.496 -11.986,40.031c-1.072,5.037 -1.702,8.558 -1.692,9.029c0.183,8.71 -1.743,18.953 0.766,27.273c-7.421,-0.513 -5.894,1.609 -13.148,0.025c1.11,-12.868 -0.173,-24.679 -2.234,-37.383c-0.675,2.814 -1.123,5.362 -1.263,8.254c-2.684,1.492 -8.467,0.412 -11.659,0.283c-0.817,-1.855 -1.518,-4.03 -3.133,-5.339c-0.096,0.39 -0.225,0.774 -0.288,1.172c-0.585,3.834 1.935,8.05 1.504,12.515c-1.11,11.483 -3.693,20.89 -9.649,30.839c-1.786,2.985 -4.389,6.05 -5.868,9.103l1.36,1.466c1.331,-1.773 3.441,-3.929 3.744,-6.105l0.38,0.524l0.801,-0.477l-0.438,1.043l-0.397,-0.52l0.858,-0.847c-5.604,12.932 -17.109,23.891 -30.193,29.145c-0.454,0.184 -0.913,0.357 -1.371,0.533c-3.968,1.437 -7.488,2.327 -11.714,2.69c-20.641,1.775 -36.087,-9.086 -51.109,-21.732c-4.156,-3.832 -16.871,-16.328 -17.485,-21.353c-9.371,-14.401 -12.554,-28.732 -15.378,-45.458c-7.08,10.284 -9.678,21.508 -15.727,32.018c-1.149,1.997 -3.067,4.908 -5.223,5.95c-2.291,1.11 -23.294,3.267 -29.07,4.762c0.053,-0.245 0.102,-0.491 0.159,-0.737c2.894,-12.637 9.954,-26.025 15.775,-37.595c4.141,-8.234 26.218,-45.043 25.815,-51.414c-0.288,-4.561 -8.16,-21.264 -10.133,-27.31c-4.773,-14.639 -9.405,-30.066 -12.082,-45.242c-3.698,-20.972 -4.902,-63.286 3.753,-82.214c34.901,4.597 64.276,18.778 94.595,35.602c-2.785,2.27 -7.487,5.161 -8.819,8.513l0.201,1.165c4.638,-0.008 10.912,-6.563 15.271,-8.661c4.705,-2.264 10.369,-3.073 15.558,-3.333c8.38,-0.421 16.249,1.898 23.853,5.215c1.033,0.451 4.295,2.341 5.215,2.368c0.528,0.017 0.995,-0.358 1.492,-0.536c0.882,-1.972 1.101,-2.791 0.275,-4.865c-4.449,-11.168 -25.536,-27.57 -36,-33.474Z" style="fill:#c2410c;fill-rule:nonzero;"/><path d="M303.49,304.52c28.727,53.959 143.698,24.051 121.607,-66.979c0.011,-3.66 4.287,-6.847 5.219,-10.359c14.366,15.408 26.185,47.269 36.216,66.761c2.344,-0.332 3.765,-0.541 6.091,0.137c7.978,-0.281 23.206,-3.16 29.858,2.157c0.253,0.203 0.472,0.445 0.707,0.667c-0.336,2.161 0.456,3.615 1.719,5.346c0.438,0.603 0.917,1.176 1.386,1.755c0.703,0.891 1.553,1.623 2.375,2.402c2.504,0.611 4.581,0.889 7.169,0.701c1.242,-0.09 2.442,-0.22 3.69,-0.165c1.885,0.085 1.89,-0.142 3.235,1.321c-0.916,2.936 -4.813,2.494 -6.897,4.978c-0.02,1.917 -0.201,1.106 0.472,2.78c0.471,1.17 0.739,2.033 0.948,3.265l-2.619,1.542c0.039,1.452 -0.29,1.375 0.627,2.212c2.409,2.198 6.122,2.103 9.17,2.165l1.09,0.013c-0.144,0.819 -12.523,10.1 -14.298,12.602l0.389,0.975l8.517,0.026c-4.69,4.385 -11.274,8.757 -14.802,14.068l0.661,0.829c3.712,-0.306 6.681,-1.736 10.046,-3.202c-4.497,4.524 -20.536,13.726 -22.111,18.317c0.83,1.064 1.286,1.629 1.699,2.936c-5.483,3.717 -16.099,4.942 -19.771,10.308c1.509,1.689 3.496,1.477 5.683,1.83c-1.935,2.401 -7.168,4.102 -9.924,5.782c-6.419,3.917 -11.791,9.531 -18.241,13.335c-49.691,29.312 -149.767,41.227 -206.867,37.624c-18.953,-1.196 -49.577,-6.436 -67.825,-11.549c-33.391,-9.355 -66.381,-23.357 -94.391,-43.947c-2.943,-2.162 -9.357,-5.909 -10.874,-9.102c-1.301,-2.736 -6.331,-5.545 -6.529,-7.77c1.731,-0.062 3.205,-0.117 4.864,-0.648c-0.556,-3.207 -8.809,-6.642 -11.422,-8.852c-1.654,-1.398 -3.102,-3.377 -4.461,-5.064c2.328,0.145 4.657,0.26 6.988,0.345l0.647,-0.873c-1.299,-3.324 -5.535,-5.383 -7.406,-8.725c-1.094,-1.953 -2.272,-3.429 -3.774,-5.089l-0.624,-0.68c0.101,-0.458 0.184,-0.922 0.302,-1.376c0.098,-0.373 0.232,-0.735 0.348,-1.102c-2.115,-0.818 -2.878,-0.848 -4.187,-2.761c0.731,-1.136 0.29,-0.721 1.643,-1.478c0.345,-0.193 0.698,-0.369 1.047,-0.554l-0.242,-1.915c-1.475,-1.876 -3.66,-3.888 -3.669,-6.385c2.681,-1.023 4.576,-2.267 5.796,-4.89c-0.829,-0.801 -1.146,-1.016 -1.475,-2.152c1.868,-0.551 2.898,-0.423 4.732,0.044c1.797,0.459 3.389,0.768 5.236,0.94l0.289,-1.8c1.481,-0.019 2.682,-0.181 4.117,-0.552c-0.893,-1.521 -1.288,-1.817 -2.72,-2.752c-2.432,-1.588 -4.729,-3.198 -6.998,-5.022l0.301,-0.902c1.254,-0.315 2.517,-0.685 3.783,-0.937c0.409,-0.081 0.821,-0.138 1.231,-0.207c-0.376,-1.933 -0.848,-3.837 -1.317,-5.749c0.814,0.601 1.763,1.696 2.789,1.637l-1.191,-3.124c0.565,-2.418 3.388,-5.085 4.958,-7.038c5.776,-1.495 26.779,-3.652 29.07,-4.762c2.156,-1.042 4.074,-3.953 5.223,-5.95c6.049,-10.51 8.647,-21.734 15.727,-32.018c2.824,16.726 6.007,31.057 15.378,45.458c0.614,5.025 13.329,17.521 17.485,21.353c15.022,12.646 30.468,23.507 51.109,21.732c4.226,-0.363 7.746,-1.253 11.714,-2.69c0.458,-0.176 0.917,-0.349 1.371,-0.533c12.664,-5.085 23.849,-15.515 29.635,-27.905l0.097,0.127l0.438,-1.043l-0.161,0.096c0.062,-0.14 0.123,-0.279 0.184,-0.42l-0.793,0.783l-0.031,0.018l-0.38,-0.524c-0.303,2.176 -2.413,4.332 -3.744,6.105l-1.36,-1.466c1.479,-3.053 4.082,-6.118 5.868,-9.103c5.956,-9.949 8.539,-19.356 9.649,-30.839c0.431,-4.465 -2.089,-8.681 -1.504,-12.515c0.063,-0.398 0.192,-0.782 0.288,-1.172c1.615,1.309 2.316,3.484 3.133,5.339c3.192,0.129 8.975,1.209 11.659,-0.283c0.14,-2.892 0.588,-5.44 1.263,-8.254c2.04,12.576 3.318,24.277 2.267,36.994c4.052,-0.781 8.079,-1.753 12.087,-2.628c-1.109,-12.868 0.173,-24.679 2.234,-37.383c0.675,2.814 1.123,5.362 1.264,8.254c0.898,0.5 12.72,20.372 17.82,47.129Zm-60.278,0.785l-0.3,-0.393l0.065,-0.064l0.609,-0.363c-0.122,0.274 -0.247,0.547 -0.374,0.82Z" style="fill:#fed7aa;"/><path d="M386.282,204.267c-1.577,-2.123 -3.574,-3.914 -5.546,-5.674c-8.41,-7.501 -25.29,-16.168 -36.792,-15.341c-1.934,0.139 -3.591,0.049 -5.514,-0.207l-0.762,-0.108c-18.083,4.899 -31.992,14.255 -41.48,30.704c-8.349,14.475 -9.798,30.12 -10.892,46.547c-0.09,1.351 -0.127,2.209 -0.689,3.391c-3.426,-14.393 1.8,-37.457 8.625,-50.4c8.472,-16.065 20.39,-27.265 37.855,-32.746c15.359,-5.275 31.86,-4.463 46.481,2.703c18.953,9.289 29.427,23.697 39.549,41.593c1.582,2.798 8.501,17.755 8.908,19.858c3.811,19.742 -2.103,43.543 -13.49,59.964c-10.226,14.747 -27.897,27.015 -45.627,30.459c-0.371,0.072 -0.747,0.109 -1.121,0.163c-4.556,1.383 -9.797,1.54 -14.535,1.141c-12.662,-1.067 -27.494,-6.947 -35.665,-16.687c-0.108,-0.525 0.642,-0.901 2.029,-1.146c9.584,8.308 25.385,12.832 38.124,12.138c1.284,-0.071 11.877,-2.071 11.877,-2.071c10.618,-0.85 24.011,-9.716 30.968,-17.383c11.564,-12.749 17.911,-28.786 17.055,-46.044c-1.216,-24.553 -11.389,-44.386 -29.358,-60.854Z" style="fill:#431407;"/><ellipse cx="350.656" cy="255.621" rx="65.126" ry="76.215" style="fill:#fbf2ea;"/><path d="M316.589,354.807c0.089,-0.428 0.764,1.201 0.764,2.488c-0,12.963 -19.521,23.487 -43.565,23.487c-24.044,-0 -43.565,-10.524 -43.565,-23.487c0,-0.448 0.358,-0.454 0.536,-0.021c4.322,10.517 21.736,18.393 42.536,18.393c22.396,-0 40.868,-9.132 43.294,-20.86Z" style="fill:#431407;"/><path d="M269.121,310.236c6.255,-0.45 12.656,-0.615 18.499,2.038c4.007,1.82 7.494,4.993 8.999,9.204l0,0.002c0.151,0.433 0.583,2.217 0.647,2.672c0.064,0.455 0.106,0.911 0.126,1.37c0.02,0.459 -0.078,2.29 -0.147,2.745c-0.069,0.453 -1.004,3.521 -1.2,3.936c-3.403,7.238 -10.156,10.041 -17.24,12.426c-0.014,0.005 -0.029,0.008 -0.044,0.009c-2.973,0.197 -6.059,0.547 -8.996,0.5c-2.963,-0.048 -5.775,-0.501 -8.172,-1.908c-4.777,-2.804 -10.025,-8.99 -11.471,-15.43c-0.73,-3.25 -0.294,-6.572 1.649,-9.326c3.952,-5.603 11.022,-7.03 17.33,-8.236c0.006,-0.001 0.013,-0.002 0.02,-0.002Z" style="fill:#431407;fill-rule:nonzero;"/><ellipse cx="347.622" cy="266.305" rx="47.386" ry="59.115" style="fill:#431407;"/><path d="M315.401,250.336c4.796,6.851 31.464,-14.188 24.282,-22.404c-15.706,-17.965 -31.094,12.672 -24.282,22.404Z" style="fill:#fbf2ea;"/><path d="M369.374,144.637c4.66,-0.039 9.15,1.604 13.205,3.772c1.373,0.736 0.825,0.21 1.386,2.019c-7.419,4.334 -18.31,3.314 -26.605,5.56c-4.409,1.191 -8.885,4.36 -12.783,6.714c-3.588,1.976 -6.618,3.993 -10.737,3.61l-0.791,-2.057c0.684,-1.711 1.33,-3.043 2.53,-4.467c8.553,-10.16 21.131,-13.742 33.795,-15.151Z" style="fill:#431407;fill-rule:nonzero;"/><path d="M218.239,146.322c8.938,0.141 19.424,1.208 27.367,5.44l0.491,1.657c-5.821,4.677 -35.561,6.17 -44.978,7.464c-6.884,1.213 -20.025,5.285 -26.635,3.676l-0.563,-2.849c13.672,-9.512 27.795,-14.553 44.318,-15.388Z" style="fill:#431407;fill-rule:nonzero;"/><path d="M185.209,97.195c11.84,-0.795 22.737,1.907 33.322,7.174c3.654,1.817 9.959,4.962 11.327,8.908l-0.909,1.247l-2.904,-0.152c-9.42,-2.556 -41.049,-7.169 -46.566,-12.312c-0.923,-0.861 -0.551,-1.366 -0.487,-2.512c2.054,-1.896 3.513,-1.826 6.217,-2.353Z" style="fill:#431407;fill-rule:nonzero;"/><path d="M108.37,77.236c9.473,-4.522 54.154,29.205 59.447,37.968c5.293,8.763 -19.49,8.154 -27.691,14.609c-8.956,7.048 -21.188,25.595 -26.046,27.682c-4.74,2.036 -15.184,-75.738 -5.71,-80.259Z" style="fill:#431407;fill-rule:nonzero;"/><path d="M397.587,110.305c4.875,-9.166 55.434,-37.627 67.127,-31.842c11.693,5.785 2.7,93.695 -2.68,91.769c-5.379,-1.926 -15.709,-26.006 -26.567,-36.772c-10.49,-10.401 -42.755,-13.989 -37.88,-23.155Z" style="fill:#431407;fill-rule:nonzero;"/><ellipse cx="201.129" cy="255.621" rx="65.126" ry="76.215" style="fill:#fbf2ea;"/><path d="M136.366,288.617c-7.508,-13.945 -7.663,-29.704 -6.263,-45.028c0.337,-3.679 3.437,-9.464 3.635,-9.776c-0.577,-0.842 -1.167,-1.651 -1.781,-2.463c2.773,-9.757 10.681,-22.391 17.305,-30.193c11.724,-13.814 28.762,-25.045 47.185,-26.396c16.089,-1.182 33.981,4.868 46.053,15.543c5.975,5.284 13.471,14.399 13.916,22.649c-8.302,-13.206 -25.813,-24.718 -40.954,-28.245c-15.557,-3.621 -32.942,1.233 -46.035,9.894c-17.212,11.386 -28.49,30.825 -32.38,50.872c-3.704,19.098 1.151,39.922 12.025,55.941c2.553,3.762 7.403,10.92 11.335,13.072c11.203,10.002 24.583,16.208 39.92,15.543c2.059,-0.088 7.946,-1.351 7.946,-1.351c12.9,-2.886 26.666,-9.796 36.309,-18.232c1.331,-1.773 4.948,-6.382 4.948,-6.382c-5.604,12.932 -22.869,23.891 -35.953,29.145c-0.454,0.184 -0.913,0.357 -1.371,0.533c-3.968,1.437 -7.488,2.327 -11.714,2.69c-20.641,1.775 -36.087,-9.086 -51.109,-21.732c-0.149,-4.184 -10.607,-20.379 -13.017,-26.084Z" style="fill:#431407;fill-rule:nonzero;"/><ellipse cx="204.396" cy="266.305" rx="47.386" ry="59.115" style="fill:#431407;"/><path d="M220.626,225.013c-8.007,2.414 3.644,34.322 13.693,30.067c21.974,-9.304 -2.32,-33.496 -13.693,-30.067Z" style="fill:#fbf2ea;"/></g></svg>