<?xml version="1.0" encoding="UTF-8" standalone="no"?><!DOCTYPE svg PUBLIC "-//W3C//DTD SVG 1.1//EN" "http://www.w3.org/Graphics/SVG/1.1/DTD/svg11.dtd"><svg width="100%" height="100%" viewBox="0 0 2190 945" version="1.1" xmlns="http://www.w3.org/2000/svg" xmlns:xlink="http://www.w3.org/1999/xlink" xml:space="preserve" xmlns:serif="http://www.serif.com/" style="fill-rule:evenodd;clip-rule:evenodd;stroke-linejoin:round;stroke-miterlimit:2;"><rect id="Artboard2" x="-0" y="-0" width="2189.27" height="944.349" style="fill:none;"/><g><g><path d="M296.114,165.102c7.996,-10.137 17.817,-18.675 28.946,-25.162l15.246,-8.892c8.508,-4.962 17.675,-8.666 27.229,-11.004l10.3,-2.517c7.613,-1.862 15.408,-2.841 23.242,-2.916l12.471,-0.125c8.141,-0.079 16.266,0.816 24.195,2.671l12.013,2.804c7.275,1.7 14.346,4.191 21.087,7.437l10.121,4.871c6.704,3.229 13.034,7.175 18.879,11.767c40.488,9.962 103.371,31.387 156.892,45.991c17.775,4.855 34.4,8.913 48.479,11.25c7.946,1.317 14.367,2.959 18.621,1.925c29.975,-7.283 48.992,-13.166 65.008,-17.854l3.946,-2.15c0.213,-0.087 4.234,-1.237 12.109,-2.921c-0.913,0.025 -1.513,0.038 -1.513,0.038c0,-0 8.271,-1.421 19.846,-3.6c1.229,-0.229 2.454,-0.408 3.671,-0.533c0.1,-0.017 0.158,-0.025 0.162,-0.025c2.025,-0.455 4.079,-0.846 6.159,-1.18c11.733,-1.879 24.945,-3.429 41.195,-4.525c6.534,-2.045 13.255,-3.433 20.063,-4.133l11.129,-1.15c10.246,-1.058 20.588,-0.554 30.683,1.483l14.567,2.946c21.446,-10.75 49.954,-22.15 76.167,-30.466l12.391,-9.267c2.109,-1.575 4.355,-2.958 6.705,-4.133l16.725,-8.334c2.316,-1.158 4.733,-2.104 7.216,-2.833l17.754,-5.204c2.467,-0.725 4.996,-1.229 7.555,-1.509l18.383,-2.008c2.571,-0.279 5.162,-0.333 7.742,-0.154l18.616,1.283c2.617,0.179 5.217,0.596 7.763,1.246l18.387,4.675c2.592,0.658 5.117,1.554 7.546,2.675l17.596,8.113c1.221,0.562 2.417,1.183 3.579,1.858c2.867,1.654 5.671,3.329 8.417,5.025c36.229,8.079 65.666,21.583 89.875,37.796c21.233,-10.413 48.4,-21.25 73.504,-29.225l12.396,-9.271c2.108,-1.575 4.354,-2.958 6.704,-4.133l16.725,-8.334c2.317,-1.158 4.733,-2.104 7.217,-2.833l17.754,-5.204c2.466,-0.725 4.996,-1.229 7.554,-1.509l18.383,-2.008c2.571,-0.279 5.163,-0.333 7.742,-0.154l18.617,1.283c2.616,0.179 5.216,0.596 7.762,1.246l18.388,4.675c2.591,0.658 5.116,1.554 7.545,2.675l17.596,8.113c1.221,0.562 2.417,1.183 3.579,1.858c2.875,1.658 5.688,3.342 8.442,5.037c29.133,6.53 53.858,16.609 75.017,28.759l4.566,-1.45c1.796,-0.571 3.625,-1.021 5.48,-1.354c22.033,-3.963 41.775,-5.013 60.179,-4.455l19.875,-10.258c3.291,-1.7 6.783,-2.971 10.391,-3.792l26.138,-5.929c3.671,-0.833 7.437,-1.187 11.2,-1.058l27.221,0.962c3.758,0.13 7.483,0.75 11.083,1.834l25.458,7.683c3.534,1.067 6.917,2.575 10.075,4.492c0,-0 10.05,6.1 10.046,6.1c6.425,-0.217 12.663,-0.209 18.759,-0.025l19.883,-10.267c3.292,-1.7 6.783,-2.971 10.392,-3.792l26.137,-5.929c3.675,-0.833 7.442,-1.187 11.204,-1.058l27.217,0.962c3.758,0.13 7.483,0.75 11.087,1.834l25.455,7.683c3.533,1.067 6.916,2.575 10.075,4.492l19.812,12.025c9.438,2.958 18.4,7.275 26.617,12.816l12.287,8.288c8.546,5.762 16.184,12.783 22.654,20.829l9.217,11.458c6.642,8.255 11.979,17.488 15.829,27.38l5.817,14.95c4.146,10.65 6.508,21.92 6.992,33.35l0.841,19.908c0.463,10.937 -0.804,21.879 -3.746,32.412l-4.65,16.655c-2.991,10.716 -7.679,20.87 -13.883,30.079l-10.087,14.971c-2.934,4.358 -6.196,8.479 -9.755,12.337c-0.17,0.188 -0.345,0.371 -0.516,0.558c-4.113,37.738 -9.05,72.78 -12.484,88.88c-3.333,15.633 -6.104,29.612 -8.45,42.179l2.609,3.212c6.05,7.442 11.037,15.696 14.821,24.529l6.008,14.025c3.829,8.942 6.387,18.38 7.6,28.042l1.787,14.263c1.063,8.487 1.075,17.07 0.042,25.562l-1.471,12.067c-0.908,7.425 -2.608,14.733 -5.079,21.787l-4.029,11.509c-2.35,6.712 -5.379,13.158 -9.042,19.241l-6.908,11.475c-1.713,2.842 -3.558,5.6 -5.533,8.267c-17.838,24.054 -52.742,49.521 -57.359,52.529c-1.558,1.017 -3.175,1.929 -4.846,2.738l-23.975,11.604c-3.325,1.604 -6.833,2.787 -10.445,3.512l-25.688,5.159c-3.583,0.72 -7.246,0.987 -10.896,0.795l-26.154,-1.375c-0.662,-0.037 -1.325,-0.087 -1.983,-0.15c-2.2,0.525 -4.442,0.884 -6.7,1.063l-8.154,0.65c-0.88,0.308 -1.771,0.587 -2.671,0.842l-30.113,8.404c-4.216,1.175 -8.583,1.712 -12.954,1.591l-31.371,-0.87c-4.446,-0.121 -8.85,-0.925 -13.058,-2.38l-25.325,-8.745l-0.879,0.175c-3.584,0.72 -7.242,0.987 -10.892,0.795l-26.158,-1.375c-0.663,-0.037 -1.321,-0.087 -1.984,-0.15c-2.2,0.525 -4.441,0.884 -6.7,1.063l-8.15,0.65c-0.883,0.308 -1.775,0.587 -2.675,0.842l-30.112,8.404c-4.217,1.175 -8.583,1.712 -12.954,1.591l-31.371,-0.87c-4.446,-0.121 -8.846,-0.925 -13.054,-2.38l-30.446,-10.516c-2.125,-0.734 -4.192,-1.629 -6.179,-2.679c-12.846,-6.796 -23.579,-13.605 -32.596,-20.167c-3.379,2.279 -7.058,4.075 -10.929,5.337l-28.292,9.217c-3.95,1.288 -8.062,2.004 -12.212,2.129l-26.263,0.792c-4.233,2.817 -8.675,5.317 -13.287,7.475l-15.325,7.179c-8.909,4.171 -18.367,7.033 -28.084,8.5l-16.379,2.475c-9.329,1.408 -18.804,1.513 -28.162,0.317l-15.525,-1.988c-8.655,-1.104 -17.138,-3.321 -25.242,-6.587l-13.642,-5.504c-7.504,-3.025 -14.625,-6.934 -21.221,-11.642l-11.475,-8.196c-6.279,-4.483 -12.033,-9.658 -17.162,-15.437l-9.242,-10.405c-2.775,-3.129 -5.358,-6.425 -7.737,-9.862l-4.475,0.092c-1.538,1.616 -3.125,3.187 -4.763,4.7c-1.558,1.441 -3.216,2.77 -4.962,3.97l-25.054,17.217c-3.471,2.383 -7.259,4.254 -11.255,5.558l-28.291,9.217c-3.95,1.288 -8.063,2.004 -12.213,2.129l-26.262,0.792c-4.238,2.817 -8.675,5.317 -13.288,7.475l-15.325,7.179c-8.912,4.171 -18.366,7.033 -28.083,8.5l-16.379,2.475c-9.329,1.408 -18.804,1.513 -28.163,0.317l-15.525,-1.988c-8.658,-1.104 -17.137,-3.321 -25.241,-6.587l-13.642,-5.504c-7.504,-3.025 -14.625,-6.934 -21.221,-11.642l-11.475,-8.196c-4.712,-3.362 -9.129,-7.121 -13.212,-11.229l-13.771,4.062c-3.529,1.038 -7.175,1.63 -10.85,1.755l-22.154,0.762c-5.088,3.825 -10.513,7.171 -16.217,9.988l-10.771,5.32c-9.137,4.517 -18.892,7.642 -28.946,9.267l-20.012,3.242c-12.188,1.971 -24.629,1.716 -36.725,-0.754l-21.304,-4.355c-10.975,-2.245 -21.513,-6.279 -31.196,-11.95l-20.875,-12.22c-5.242,-3.071 -10.2,-6.6 -14.813,-10.542c-9.341,5.725 -17.854,10.387 -25.404,14.15c-45.271,22.583 -79.779,24.375 -95.917,23.912c-10.675,-0.3 -20.4,-1.366 -29.258,-2.916l-5.258,2.546c-7.9,3.829 -16.259,6.62 -24.863,8.308l-11.471,2.254c-8.995,1.763 -18.187,2.308 -27.325,1.621l-13.22,-1c-9.9,-0.746 -19.642,-2.938 -28.917,-6.5l-12.842,-4.929c-0.221,-0.084 -0.441,-0.171 -0.666,-0.259c-0.425,0.192 -0.85,0.38 -1.284,0.555l-29.35,12.166c-4.062,1.688 -8.35,2.746 -12.725,3.15l-30.929,2.854c-4.325,0.4 -8.679,0.155 -12.929,-0.733l-30.417,-6.342c-4.3,-0.895 -8.446,-2.437 -12.291,-4.57l-27.805,-15.417c-1.941,-1.075 -3.8,-2.3 -5.558,-3.654c-17.908,-13.834 -35.221,-32.867 -49.825,-56.992c-56.654,-39.037 -113.283,-115.312 -125.787,-237.304c-7.863,-76.688 8.108,-155.525 56.579,-223.592c34.958,-49.083 88.096,-94.625 168.637,-124.871Z" style="fill:#431407;"/><path d="M680.393,442.944c-0.829,-0.458 -1.333,-0.771 -1.504,-0.875c0.496,0.304 1,0.596 1.504,0.875Zm238.067,238.908c-12.592,9.921 -29.45,12.705 -44.633,7.18c-4.659,-1.696 -8.942,-4.096 -12.742,-7.059c-0.333,0.075 -0.667,0.15 -1,0.221l-6.579,1.375c-2.575,0.538 -5.167,0.854 -7.75,0.95l-3.325,7.896l-8.475,11.462l-9.621,7.905l-10.767,5.325l-20.016,3.237l-21.304,-4.354l-20.875,-12.221l-15.946,-16.942l-8.854,-17.541l-2.717,-13.059l0.233,-13.404l7.596,-22.437l6.271,-8.275c-3.45,-0.346 -6.846,-1.079 -10.129,-2.184c-46.859,53.292 -87.671,81.113 -113.879,94.184c-22.542,11.246 -39.388,13.437 -47.43,13.208c-5.954,-0.171 -11.316,-0.792 -16.137,-1.721l-16.258,-4.9l-15.721,-9.208l-3.954,-4.129c-1.342,3.508 -2.388,5.966 -3.042,7.158l-6.167,8.858l-9.637,8.417l-11.009,5.329l-11.475,2.254l-13.22,-1l-12.838,-4.929l-8.079,-5.779l-5.904,-6.767c-8.721,1.771 -18.013,2.863 -27.909,3.121c-8.82,0.234 -18.129,-0.021 -27.925,-0.979c-3.837,6.3 -9.17,11.729 -15.737,15.708c-16.442,9.959 -37.263,8.775 -52.488,-2.983c-13.291,-10.267 -25.229,-26.546 -34.216,-47.508c-6.409,-3.754 -12.946,-7.884 -19.604,-12.421c-38.542,-26.283 -73.625,-79.9 -82.13,-162.9c-5.362,-52.3 4.813,-106.25 37.871,-152.671c28.909,-40.587 76.017,-76.317 149.234,-97.571c1.616,-2.637 3.045,-5.146 4.229,-7.562l12.125,-15.671l15.246,-8.888l10.3,-2.52l12.47,-0.121l12.013,2.804l10.121,4.871l15.379,14.637c59.412,6.388 108.175,45.429 127.096,88.563c19.496,44.437 13.212,93.375 -32.888,128.266c4.263,4.655 7.634,10.221 9.788,16.471c8.187,23.754 7.571,46.075 3.458,66.329c0.154,4.917 -0.05,10.392 -0.65,16.48c0.05,-0.017 0.1,-0.034 0.15,-0.046l14.488,-2.738l17.279,1.296l17.683,7.221l3.379,2.917c32.259,-34.33 65.421,-79.017 92.1,-113.713c0.642,-0.833 1.284,-1.683 1.917,-2.55c-8.613,0.538 -17.442,-1.321 -25.463,-5.8l-10.895,-7.279l-10.955,-10.596l-6.845,-9.575l-5.905,-12.671l-3.67,-22.825l4.633,-23.946l5.683,-11.983l7.304,-9.867l10.067,-8.77l14.817,-7.496c8.9,-3.192 25.816,-5.063 63.291,-14.167c49.771,-12.096 67.617,-20.358 94.188,-25.362l0.008,0.095l10.75,-1.783l-3.525,0.429c11.879,-1.904 25.679,-3.308 43.996,-4.15l11.613,-3.766l11.129,-1.15l21.266,4.3l14.021,8.808l6.938,7.854c8.016,-6.987 16.962,-13.829 26.9,-20.462c19.491,-13.013 65.171,-30.146 95.625,-37.171c0.862,-1.413 1.812,-2.796 2.841,-4.138c14.271,-18.575 39.963,-23.704 60.188,-12.012c7.358,4.254 14.162,8.683 20.454,13.254c64.75,9.125 98.646,43.833 118.8,74.833c11.379,-11.991 25.221,-23.671 41.85,-34.766c19.492,-13.013 65.171,-30.146 95.625,-37.171c0.863,-1.413 1.813,-2.796 2.842,-4.138c14.271,-18.575 39.962,-23.704 60.187,-12.012c7.359,4.254 14.163,8.683 20.454,13.254c53.605,7.554 86.063,32.646 107.084,58.646c5.933,-14.9 19.125,-25.909 35.141,-28.788c27.446,-4.933 49.646,-2.862 70.621,0.034c2.046,0.283 4.071,0.587 6.092,0.895c7.154,-13.829 20.9,-23.562 37.025,-25.1c16.396,-1.562 31.954,5.663 41.521,18.28l3.416,0.05l14.18,4.279l1.329,0.896c25.654,-4.067 46.729,-2.055 66.691,0.7c2.05,0.283 4.075,0.587 6.092,0.895c7.154,-13.829 20.9,-23.562 37.025,-25.1c16.396,-1.562 31.954,5.663 41.525,18.28l3.417,0.05l14.175,4.279l12.291,8.287l9.213,11.459l5.821,14.95l0.841,19.912l-4.65,16.654l-10.087,14.971c-5.679,6.154 -15.075,12.033 -23.204,16.408c-3.917,47.121 -10.634,101.346 -14.979,121.725c-10.321,48.375 -15.542,81.821 -19.363,106.625l13.65,6.125l11.842,8.859l8.962,11.029l6.013,14.029l1.787,14.263l-1.471,12.066l-4.029,11.509l-6.908,11.475c-9.496,12.804 -28.413,25.983 -30.871,27.583c-13.404,8.737 -30.308,9.971 -44.825,3.271c-2.087,-0.963 -4.087,-2.071 -5.983,-3.313c-11.121,8.017 -25.292,10.771 -38.688,7.338c-14.387,12.779 -35.3,15.491 -52.583,6.35c-10.538,-5.571 -18.625,-10.984 -24.817,-15.984c-1.662,1.196 -2.854,2.013 -3.358,2.338c-13.404,8.737 -30.313,9.971 -44.829,3.271c-2.088,-0.963 -4.084,-2.071 -5.984,-3.313c-11.116,8.017 -25.291,10.771 -38.683,7.338c-14.387,12.779 -35.304,15.491 -52.583,6.35c-17.038,-9.009 -27.667,-17.596 -34.234,-24.696l-11.229,-16.067l-5.112,-14.741l-1.079,-14.742l2.608,-14.142l6.35,-13.6l11.054,-13.204c6.633,-6.146 22.292,-14.846 30.379,-19.154c0.071,-5.458 0.129,-13.988 -0.008,-22.246c-0.313,-18.429 -0.592,-43.796 1.012,-80.004c-3.791,5.558 -7.958,10.771 -12.479,15.567c-17.796,18.883 -34.633,31.866 -50,40.637c-0.537,1.571 -1.091,3.163 -1.658,4.783c-8.354,23.83 -33.913,36.755 -57.879,29.263c-2.763,-0.863 -5.392,-1.963 -7.871,-3.271c-0.104,0.558 -0.208,1.113 -0.317,1.671l16.713,11.154l11.258,15.479l7.175,20.946l0.925,20.954l-6.525,23.825l-8.875,14.746l-9.7,10.679c-13.475,12.471 -32.937,15.863 -49.787,8.684c-7.53,-3.209 -13.921,-8.263 -18.73,-14.517c-0.375,0.167 -0.754,0.337 -1.133,0.512l-4.354,10.542l-8.746,12.704l-12.396,10.813l-15.325,7.175l-16.375,2.471l-15.525,-1.984l-13.641,-5.504l-11.475,-8.192l-9.238,-10.408l-6.817,-12.321l-4.033,-13.846l-0.879,-14.704l2.379,-14.629l5.342,-13.65l7.704,-12.117l9.504,-10.445c7.954,-7.48 19.996,-16.13 24.079,-19.005c0.6,-3.916 2.254,-15.87 2.129,-27.595c-0.162,-15.25 -1.362,-32.659 -3.075,-50.95c-29.487,12.483 -58.795,7.683 -82.737,-7.205c-3.275,-2.037 -6.488,-4.37 -9.608,-6.983c-0.088,0.096 -0.175,0.192 -0.267,0.288c-17.796,18.883 -34.633,31.866 -50,40.637c-0.538,1.571 -1.092,3.163 -1.658,4.783c-8.355,23.83 -33.913,36.755 -57.88,29.263c-2.762,-0.863 -5.391,-1.963 -7.87,-3.271c-0.105,0.558 -0.209,1.113 -0.317,1.671l16.712,11.154l11.259,15.479l7.175,20.946l0.925,20.954l-6.525,23.825l-8.875,14.746l-9.7,10.679c-13.475,12.471 -32.938,15.863 -49.788,8.684c-7.529,-3.209 -13.921,-8.263 -18.729,-14.517c-0.375,0.167 -0.754,0.337 -1.133,0.512l-4.354,10.542l-8.746,12.704l-12.396,10.813l-15.325,7.175l-16.375,2.471l-15.525,-1.984l-13.642,-5.504l-11.475,-8.192l-9.237,-10.408l-6.817,-12.321l-4.033,-13.846l-0.879,-14.704l2.379,-14.629l5.341,-13.65l7.705,-12.117l9.504,-10.445c7.954,-7.48 19.996,-16.13 24.079,-19.005c0.6,-3.916 2.254,-15.87 2.129,-27.595c-0.162,-15.25 -1.362,-32.659 -3.075,-50.95c-29.487,12.483 -58.796,7.683 -82.737,-7.205c-2.896,-1.8 -5.746,-3.837 -8.521,-6.087c-1.621,7.308 -3.663,15.7 -6.338,25.704c-4.783,17.888 -8.579,31.363 -12.004,42.729l6.967,6.171l12.121,18.967l5.72,21.041l-0.687,21.675l-4.079,13.471l-5.821,10.921l-9.317,11.421l-9.558,8.108c0.15,-0.108 0.292,-0.216 0.429,-0.321Zm0,0c0.879,-0.691 1.733,-1.416 2.563,-2.175c-0.525,0.48 -1.363,1.263 -2.563,2.175Zm-161.7,-25.583c-0.246,1.742 -0.292,3.663 -0.058,5.783l0.058,-5.783Zm337.967,35.204l-0.967,0.729c0.292,-0.187 0.617,-0.433 0.967,-0.729Zm339.758,0l-0.967,0.729c0.292,-0.187 0.617,-0.433 0.967,-0.729Zm-876.054,-104.025l4.792,-3.571c-1.713,1.046 -3.313,2.242 -4.792,3.571Zm-170.733,-18.737l0.1,-2.517c-0.063,0.846 -0.096,1.683 -0.1,2.517Zm61.558,-93.4c-20.742,-6.767 -38.4,-19.617 -50.229,-34.396l-9.134,-14.7c-0.841,2.646 -1.687,5.346 -2.541,8.112c-4.879,15.842 -9.654,31.571 -13.742,51.492c9.938,-4.829 21.721,-8.233 34.667,-9.85c12.996,-1.625 27.596,-1.421 40.979,-0.658Zm1360.11,-115.859c-3.912,47.121 -10.633,101.346 -14.979,121.725c-10.316,48.375 -15.541,81.821 -19.362,106.625l13.65,6.125l0.696,0.521c4.337,-2.516 8.487,-4.779 11.55,-6.408c0.066,-5.458 0.125,-13.988 -0.013,-22.246c-0.433,-25.625 -0.808,-64.658 3.871,-127.608c1.883,-25.317 4.937,-58.654 6.958,-80.034c-0.796,0.446 -1.591,0.884 -2.371,1.3Z" style="fill:#7c2d12;"/><g><path d="M1073.01,649.394c-5.871,5.375 -7.366,1.067 -13.446,20.792c-9.35,30.341 -46.395,3.196 -18.541,-23c23.587,-22.188 41.733,-15.921 41.033,-81.484c-0.867,-80.95 -31.821,-223.416 -11.6,-232.316c36.825,-16.204 57.038,54.529 54.892,85.1c-2.117,30.125 -5.167,34.254 -6.871,104.271c-1.054,43.295 -1.467,43.37 -16.538,83.829c24.338,7.05 40.821,5.354 46.117,15.829c9.888,19.562 -4.879,33.229 -6.979,35.171c-0.358,-13.167 -2.896,-43.667 -68.067,-8.192Z" style="fill:#fed7aa;"/><path d="M1019.76,395.132c-9.108,2.77 3,35.854 -24.454,45.516c-30.208,10.634 -58.317,-83.646 39.325,-118.866c17.571,-6.338 65.838,-37.938 128.558,-27.884c98.305,15.754 89.742,122.209 52.813,160.671c-43.446,45.246 -64.533,37.504 -70.45,35.329c-1.325,-0.483 -4.25,-5.487 -4.104,-5.721c3.083,-4.92 41.687,-3.116 32.55,-23.229c-9.234,-20.333 -45.15,-15.466 -44.284,19.934c0.555,22.733 45.755,62.466 115.842,-11.909c25.204,-26.746 33.908,-72.891 14.425,-111.129c-15.612,-30.642 -45.621,-97.125 -158.979,-82.442c-22.996,2.98 -71.288,19.892 -90.004,32.388c-124.163,82.887 -45.738,208.212 19.583,153.796c19.304,-16.079 19.35,-34.179 19.358,-37.567c0.059,-23.079 -21.075,-31.658 -30.179,-28.887Z" style="fill:#fed7aa;"/><path d="M1183.74,531.115c17.346,-65.075 12.029,-72.121 -7.879,-163.029c-6.208,-28.359 -29.775,-85.829 -55.25,-112.029c64.812,37.466 75.917,91.216 78.258,133.654c3.792,68.816 2.492,91.137 -15.129,141.404Z" style="fill:#fed7aa;"/><path d="M1412.77,649.394c-5.871,5.375 -7.367,1.067 -13.446,20.792c-9.35,30.341 -46.396,3.196 -18.542,-23c23.588,-22.188 41.733,-15.921 41.033,-81.484c-0.866,-80.95 -31.82,-223.416 -11.6,-232.316c36.825,-16.204 57.038,54.529 54.892,85.1c-2.117,30.125 -5.167,34.254 -6.871,104.271c-1.054,43.295 -1.466,43.37 -16.537,83.829c24.337,7.05 40.821,5.354 46.116,15.829c9.888,19.562 -4.879,33.229 -6.979,35.171c-0.358,-13.167 -2.896,-43.667 -68.066,-8.192Z" style="fill:#fed7aa;"/><path d="M1359.52,395.132c-9.109,2.77 3,35.854 -24.455,45.516c-30.208,10.634 -58.316,-83.646 39.325,-118.866c17.571,-6.338 65.838,-37.938 128.559,-27.884c98.304,15.754 89.741,122.209 52.812,160.671c-43.446,45.246 -64.533,37.504 -70.45,35.329c-1.325,-0.483 -4.25,-5.487 -4.104,-5.721c3.083,-4.92 41.688,-3.116 32.55,-23.229c-9.233,-20.333 -45.15,-15.466 -44.283,19.934c0.554,22.733 45.754,62.466 115.841,-11.909c25.205,-26.746 33.909,-72.891 14.425,-111.129c-15.612,-30.642 -45.62,-97.125 -158.979,-82.442c-22.996,2.98 -71.287,19.892 -90.004,32.388c-124.162,82.887 -45.737,208.212 19.583,153.796c19.305,-16.079 19.35,-34.179 19.359,-37.567c0.062,-23.079 -21.075,-31.658 -30.179,-28.887Z" style="fill:#fed7aa;"/><path d="M1523.49,531.115c17.346,-65.075 12.03,-72.121 -7.879,-163.029c-6.208,-28.359 -29.775,-85.829 -55.25,-112.029c64.813,37.466 75.917,91.216 78.259,133.654c3.791,68.816 2.491,91.137 -15.13,141.404Z" style="fill:#fed7aa;"/><path d="M1683.08,627.952c6.158,-0.737 69.533,-5.937 85.496,9.146c9.495,8.967 -17.634,26.65 -19.938,28.154c-6.825,-49.812 -85,-17.954 -91.904,-15.137c-20.129,8.2 -9.163,17.046 -3.096,26.625c-59.45,-31.442 -3.108,-42.563 9.754,-53.533c25.579,-21.813 6.409,-29.45 17.709,-181.513c3.687,-49.642 13.3,-104.562 7.187,-117.037c-4.946,-10.096 -22.4,-11.5 -33.787,-19.98c45.27,-8.137 72.57,9.042 110.512,2.071c28.725,-5.279 37.375,-14.121 35.879,-0.487c-0.891,8.171 -20.825,15.562 -22.937,16.346c-3.542,1.312 -7.304,2.708 -46.717,6.691c-22.967,57.592 5.433,100.892 -48.158,298.654Z" style="fill:#fed7aa;"/><path d="M1764.43,281.032c-14.783,115.47 -19.871,135.616 -32.742,200.42c-14.396,72.48 -19.241,79.417 -35.675,184.996c37.875,-43.996 22.879,-55.275 52.717,-195.15c7.387,-34.646 21.65,-171.991 15.7,-190.266Z" style="fill:#fed7aa;"/><path d="M1853.34,627.952c6.154,-0.737 69.529,-5.937 85.496,9.146c9.496,8.967 -17.633,26.65 -19.942,28.154c-6.825,-49.812 -84.996,-17.954 -91.904,-15.137c-20.125,8.2 -9.162,17.046 -3.092,26.625c-59.454,-31.442 -3.112,-42.563 9.755,-53.533c25.579,-21.813 6.404,-29.45 17.704,-181.513c3.691,-49.642 13.304,-104.562 7.187,-117.037c-4.946,-10.096 -22.4,-11.5 -33.787,-19.98c45.275,-8.137 72.571,9.042 110.516,2.071c28.721,-5.279 37.371,-14.121 35.88,-0.487c-0.896,8.171 -20.83,15.562 -22.938,16.346c-3.542,1.312 -7.304,2.708 -46.721,6.691c-22.962,57.592 5.438,100.892 -48.154,298.654Z" style="fill:#fed7aa;"/><path d="M1934.68,281.032c-14.783,115.47 -20.604,134.045 -32.737,200.42c-13.292,72.692 -18.317,87.017 -35.68,184.996c37.33,-44.987 21.405,-57.95 52.717,-195.15c7.883,-34.537 21.654,-171.991 15.7,-190.266Z" style="fill:#fed7aa;"/><path d="M844.006,637.515c76.558,-301.488 49.708,-313.413 66.683,-321.013c29.188,-13.058 6.3,70.4 4.684,76.296c-16.6,60.517 -9.55,61.971 -25.775,122.638c-16.188,60.508 -20.567,68.325 -39.017,120.704" style="fill:#fed7aa;"/><path d="M464.277,360.961c-83.721,8.525 -10.925,106.191 52.833,59.333c66.579,-48.929 -9.967,-148.904 -102.6,-132.05c-91.554,16.654 -137.017,57.608 -168.208,102.875c-23.459,34.042 -35.071,85.375 -29.634,122.538c8.609,58.783 29.613,81.279 64.713,113.233c43.783,39.854 89.942,41.379 122.571,40.112c50.258,-1.95 57.179,-18.391 74.158,-50.941c9.342,-17.909 23.375,-55.209 30.075,-72.167c2.654,-6.721 36.617,-4.287 37.467,-9.242c0.829,-4.8 -54.888,-8.975 -64.829,-9.662c-20.05,-1.379 -71.3,-9.571 -92.017,6.242c-2.025,36.404 76.712,12.5 76.767,12.541c1.995,1.604 -29.3,71.892 -43.017,81.521c-43.096,30.258 -133.596,-16.825 -161.583,-91.662c-15.263,-40.813 -14.163,-88.513 28.495,-139.575c47.98,-57.442 184.905,-108.134 219.805,-44.238c33.112,60.633 -75.1,84.392 -57.138,45.333c6.225,-13.537 8.954,-11.833 15.371,-25.25c1.371,-2.875 -2.771,-8.337 -3.229,-8.941Z" style="fill:#fed7aa;"/><path d="M469.856,680.882c1.383,-12.93 30.396,-151.875 42.079,-191.909c10.596,30.75 -3.758,57.771 -8.292,77.579c-13.133,57.375 -35.17,127.259 -33.787,114.33Z" style="fill:#fed7aa;"/><path d="M582.464,627.177c2.909,-3.079 18.667,-5.8 4.675,-22.287c-21.171,-24.95 -83.271,63.587 -19.3,65.412c15.863,0.45 90.329,-32.004 175.892,-157.637c3.554,-5.221 100.108,-131.529 94.117,-159.667c-0.042,-0.196 -20.388,-9.279 -21.063,-9.387c-15.562,-2.492 -38.996,88.466 -75.925,136.487c-49.846,64.817 -121.887,162.971 -170.071,171.996c-1.962,0.367 -17.45,-9.192 -1.204,-17.229c6.708,-3.317 6.875,-2.538 12.879,-7.688Z" style="fill:#fed7aa;"/><path d="M807.868,622.465c26.325,-122.05 31.455,-155.163 33.559,-168.767c10.262,-66.254 7.612,-66.387 9.262,-129.083c42.234,-10.396 26.038,54.717 24.646,94.387c-1.292,36.825 0.113,37.28 -19.821,103.817c-7.45,24.871 -10.408,43.75 -25.537,85.863c46.387,-8.43 62.671,-9.292 68.825,5.275c8.621,20.395 -7.417,29.3 -9.104,30.837c-1.742,-12.267 2.737,-21.892 -10.13,-23.05c-32.95,-2.967 -77.762,23.246 -76.454,35.096c3.4,30.712 -27.658,11.637 -32.162,-2.204c-6.4,-19.675 35.479,-31.629 36.916,-32.171Z" style="fill:#fed7aa;"/><path d="M703.014,401.794c29.913,-44.204 45.779,-23.037 210.688,-82.408c-79.279,1.737 -77.638,11.354 -154.829,30.108c-57.746,14.029 -62.9,8.533 -68.467,23.279c-7.15,18.938 12.158,28.746 12.608,29.021Z" style="fill:#fed7aa;"/><path d="M833.781,512.377c-3.342,-5.079 -108.613,17.688 -111.229,22.471c-5.479,10.029 17.746,28.613 20.054,30.459c28.437,-40.855 94.517,-47.855 91.175,-52.93Z" style="fill:#fed7aa;"/><path d="M406.273,265.973c-18.096,36.884 -77.209,93.142 -100.584,227.484c-11.046,63.458 -3.962,167.404 31.746,194.987c-5.208,-31.25 -8.337,-44.983 -15.529,-74.071c-7.042,-28.5 -5.163,-76.104 3.55,-125.421c4.925,-27.854 10.996,-48.133 17.296,-68.57c23.296,-75.592 43.283,-108.984 71.5,-148.242c3.671,-5.104 -6.154,-9.892 -7.979,-6.167Z" style="fill:#fed7aa;"/></g></g></g></svg>