<?xml version="1.0" encoding="UTF-8" standalone="no"?><!DOCTYPE svg PUBLIC "-//W3C//DTD SVG 1.1//EN" "http://www.w3.org/Graphics/SVG/1.1/DTD/svg11.dtd"><svg width="100%" height="100%" viewBox="0 0 573 573" version="1.1" xmlns="http://www.w3.org/2000/svg" xmlns:xlink="http://www.w3.org/1999/xlink" xml:space="preserve" xmlns:serif="http://www.serif.com/" style="fill-rule:evenodd;clip-rule:evenodd;stroke-linejoin:round;stroke-miterlimit:2;"><rect id="Artboard1" x="0" y="0" width="572.522" height="572.522" style="fill:none;"/><g><path d="M123.675,252.557c0.063,-0.189 0.134,-0.374 0.213,-0.557l0.452,-1.051c0.181,-0.423 0.403,-0.827 0.661,-1.208l0.643,-0.947c0.261,-0.383 0.557,-0.741 0.886,-1.067l0.082,-0.082l0.083,-0.488c0.062,-0.366 0.152,-0.726 0.269,-1.077l0.212,-0.634c0.096,-0.289 0.21,-0.572 0.342,-0.846l0.655,-1.362c0.262,-0.546 0.592,-1.057 0.982,-1.521l0.503,-0.599l0.02,-0.089c0.159,-0.713 0.426,-1.397 0.791,-2.03l0.902,-1.567c0.301,-0.523 0.666,-1.005 1.086,-1.437c0.415,-0.729 0.887,-1.456 1.41,-2.169c0.309,-0.42 0.641,-0.839 0.98,-1.248c2.532,-9.044 7.338,-18.467 11.463,-26.666c2.027,-4.03 10.206,-17.851 14.831,-27.311c0.524,-1.072 0.998,-2.066 1.386,-2.953c-0.01,-0.026 -0.02,-0.053 -0.03,-0.08c-1.706,-4.609 -12.88,-37.256 -14.867,-48.523l-0,0c-2.952,-16.736 -3.273,-50.472 3.634,-65.576c0.162,-0.354 0.351,-0.693 0.568,-1.016l1.07,-1.599c0.428,-0.64 0.955,-1.207 1.562,-1.681l1.481,-1.155c0.599,-0.467 1.267,-0.837 1.981,-1.096l1.765,-0.641c0.723,-0.263 1.484,-0.409 2.253,-0.432l1.924,-0.057c0.388,-0.012 0.777,0.008 1.162,0.058c25.204,3.32 63.51,14.685 63.51,14.685c-0.034,-0.532 -0.008,-1.066 0.076,-1.593l0.207,-1.298c0.084,-0.523 0.225,-1.036 0.42,-1.528l0.485,-1.222c0.197,-0.496 0.448,-0.968 0.748,-1.409l0.75,-1.099c0.151,-0.221 0.314,-0.434 0.489,-0.637c5.282,-6.148 8.196,-8.091 16.433,-8.52c7.986,-0.416 19.567,3.306 31.464,9.336c14.332,7.263 29.613,17.494 38.037,22.212c6,3.361 12.543,6.066 18.885,8.72c1.274,0.533 6.986,0.66 8.61,-0.159c8.571,-4.321 20.037,-11.297 25.053,-13.876c8.711,-4.48 29.803,-13.733 46.22,-18.821c8.366,-2.592 15.76,-4.034 20.486,-3.972l0.001,0c5.567,0.074 10.428,1.733 14.574,5.598l-0,-0c4.221,3.936 7.36,10.154 9.003,17.386c1.708,7.519 1.956,16.214 1.994,21.942c0.124,18.469 -8.139,50.857 -13.012,68.828c-0.681,2.513 -1.88,5.377 -2.95,8.237c-0.274,0.732 -0.693,1.413 -0.809,2.074c0.128,0.351 0.379,1.03 0.554,1.463c1.338,3.316 3.208,6.821 4.229,9.382c2.098,5.258 7.539,19.993 10.508,30.612c1.268,4.534 2.026,8.548 2.288,11.423l0.052,0.009c0.273,0.047 1.966,0.529 1.966,0.529c0.461,0.136 2.374,1.091 2.374,1.091c0.416,0.22 2.073,1.503 2.073,1.503c0.36,0.291 0.69,0.616 0.987,0.97c0,0 1.291,1.605 1.514,2.006l0.547,0.982c0,-0 2.678,1.54 4.509,3.533c0.216,0.234 1.503,2.033 1.503,2.033c0.363,0.517 1.406,3.129 1.406,3.129c0.214,0.588 0.55,3.369 0.55,3.369c0.058,0.629 -0.342,3.439 -0.342,3.439c-0.054,0.313 -0.128,0.623 -0.223,0.926c-0.013,0.043 -0.026,0.085 -0.04,0.127c0.007,0.011 0.014,0.022 0.022,0.033c-0,-0 1.246,1.991 1.434,2.48l0.463,1.203c0.186,0.485 0.593,2.778 0.593,2.778c0.079,0.517 0.102,1.041 0.068,1.563c-0,-0 -0.133,1.824 -0.179,2.083l-0.276,1.172l-1.151,2.873l-1.012,1.623c-0.222,0.3 -0.609,0.778 -1.168,1.37c-0.003,0.112 -0.009,0.225 -0.018,0.337l-0.132,1.759c-0.053,0.711 -1.106,3.719 -1.106,3.719c-0.261,0.673 -0.621,1.303 -1.068,1.869l-0.556,0.705l-0.005,0.658c-0.003,0.409 -0.04,0.816 -0.112,1.219l-0.178,1c-0.072,0.405 -0.178,0.802 -0.317,1.189l-0.348,0.963c-0.141,0.392 -0.316,0.771 -0.523,1.132l-0.516,0.904c-0.21,0.367 -0.451,0.716 -0.722,1.041l-0.679,0.815c-0.136,0.163 -0.279,0.321 -0.429,0.472c-1.991,2.002 -6.729,5.241 -10.841,8.292l-0.098,0.55c-0.134,0.752 -0.386,1.478 -0.748,2.152l-0.893,1.665c-0.367,0.683 -0.841,1.303 -1.403,1.835l-1.408,1.332c-0.284,0.269 -0.589,0.514 -0.913,0.733c-1.438,0.975 -3.201,1.839 -5.103,2.643c-0.152,0.385 -0.336,0.757 -0.552,1.112l-0.819,1.346c-0.165,0.271 -0.348,0.531 -0.547,0.778c-1.477,1.832 -3.769,3.7 -6.553,5.188c-1.308,0.698 -2.846,1.268 -3.834,1.87c-4.566,2.787 -8.398,6.765 -12.986,9.471c-4.155,2.451 -8.77,4.75 -13.755,6.891c-0.013,1.378 -0.177,2.67 -0.45,3.905l0.944,0.858c0.235,0.214 0.455,0.443 0.66,0.686c0.078,0.092 0.154,0.187 0.237,0.284c2.598,2.962 8.56,5.922 13.195,9.199c6.329,4.475 10.903,9.668 12.529,14.107c0.081,0.22 0.15,0.444 0.209,0.67l0.294,1.129c0.117,0.451 0.19,0.912 0.218,1.377l0.07,1.139c0.024,0.392 0.016,0.786 -0.024,1.178c3.944,3.331 8.194,7.063 11.385,10.317c2.933,2.992 5.118,5.812 6.297,7.935c1.466,2.64 2.039,5.061 2.182,6.994c0.022,0.299 0.026,0.6 0.011,0.9l-0.075,1.487c-0.031,0.596 -0.134,1.186 -0.309,1.757l-0.431,1.402c-0.173,0.566 -0.416,1.109 -0.722,1.616l-0.757,1.256c-0.309,0.511 -0.679,0.982 -1.103,1.402l-1.058,1.049c-0.213,0.211 -0.439,0.409 -0.677,0.592l-0.686,0.528c-0.228,0.176 -0.467,0.339 -0.715,0.486l-1.231,0.733c-0.493,0.293 -1.02,0.527 -1.568,0.697l-1.35,0.416c-0.544,0.168 -1.107,0.271 -1.675,0.307l-1.41,0.089c-0.573,0.036 -1.148,0.004 -1.713,-0.095l-1.411,-0.249c-0.284,-0.05 -0.565,-0.117 -0.841,-0.201c-2.43,-0.735 -6.851,-3.693 -11.83,-7.92c-0.95,-0.806 -1.968,-1.675 -3.044,-2.527l-0.947,0.315c-0.511,0.17 -1.04,0.283 -1.576,0.336l-1.329,0.131c-0.539,0.053 -1.083,0.046 -1.621,-0.022l-1.124,-0.143c-0.334,0.13 -0.678,0.235 -1.028,0.314l-1.563,0.352c-0.533,0.12 -1.077,0.18 -1.622,0.178l-0.782,-0.004c-2.003,0.561 -4.066,0.898 -6.165,1.048c-0.124,0.191 -0.256,0.376 -0.398,0.555l-0.974,1.234c-0.397,0.503 -0.859,0.95 -1.374,1.331l-1.285,0.952c-0.259,0.192 -0.531,0.366 -0.814,0.522c-2.341,1.289 -4.753,1.906 -7.209,1.991c-0.174,0.101 -0.353,0.196 -0.535,0.283l-1.404,0.668c-0.283,0.135 -0.574,0.251 -0.873,0.348c-2.819,0.918 -4.603,1.041 -6.324,0.945c-0.555,-0.032 -1.121,-0.088 -1.717,-0.19l-0.428,0.076c-0.39,0.07 -0.784,0.107 -1.179,0.113l-0.982,0.012c-0.397,0.005 -0.794,-0.022 -1.186,-0.082l-0.936,-0.143c-0.064,0.003 -0.128,0.006 -0.192,0.008c-0.455,0.268 -0.939,0.484 -1.442,0.646l-1.352,0.436c-0.549,0.177 -1.118,0.287 -1.694,0.329l-1.436,0.104c-0.29,0.022 -0.58,0.025 -0.87,0.011c-0.499,-0.024 -0.986,-0.064 -1.464,-0.118c-2.153,0.666 -4.803,1.154 -7.383,1.245c-0.75,0.435 -1.539,0.851 -2.359,1.243c-3.301,1.579 -7.216,2.829 -9.906,3.632c-0.033,0.018 -0.067,0.035 -0.1,0.053l-1.69,0.875c-0.684,0.354 -1.42,0.597 -2.181,0.719l-1.879,0.302c-0.38,0.061 -0.764,0.092 -1.148,0.092l-10.988,-0c-0.2,-0 -0.4,-0.008 -0.599,-0.025l-0.991,-0.082c-0.396,-0.033 -0.789,-0.099 -1.174,-0.196l-0.948,-0.239c-0.567,-0.144 -1.114,-0.355 -1.631,-0.63l-0.201,-0.108l-0.692,0.327c-0.643,0.304 -1.328,0.512 -2.032,0.616l-1.74,0.259c-0.352,0.052 -0.707,0.078 -1.062,0.078l-66.66,-0c-0.358,-0 -0.716,-0.027 -1.07,-0.08l-1.754,-0.262c-0.709,-0.106 -1.399,-0.317 -2.046,-0.626l-0.387,-0.184c-0.26,0.118 -0.526,0.221 -0.798,0.307l-1.168,0.374c-0.473,0.151 -0.961,0.253 -1.455,0.304l-1.232,0.128c-0.248,0.026 -0.498,0.039 -0.747,0.039l-32.487,-0c-0.356,-0 -0.712,-0.027 -1.065,-0.079l-1.747,-0.26c-0.706,-0.105 -1.393,-0.314 -2.038,-0.62l-1.595,-0.757c-0.322,-0.153 -0.632,-0.33 -0.928,-0.528c-1.726,-1.158 -3.143,-2.227 -4.34,-3.474c-0.103,0.02 -0.207,0.039 -0.311,0.055l-1.183,0.183c-0.474,0.073 -0.955,0.099 -1.435,0.078l-1.184,-0.054c-0.478,-0.022 -0.952,-0.091 -1.416,-0.206l-1.15,-0.285c-0.466,-0.116 -0.92,-0.278 -1.354,-0.484l-1.082,-0.512c-0.218,-0.103 -0.431,-0.217 -0.637,-0.342l-0.667,-0.402c-0.197,-0.118 -0.387,-0.245 -0.571,-0.382l-0.918,-0.679c-0.367,-0.271 -0.707,-0.576 -1.016,-0.912l-0.757,-0.821c-0.211,-0.229 -0.406,-0.47 -0.586,-0.724l-1.058,0.001c-0.57,0 -1.138,-0.067 -1.692,-0.2l-1.374,-0.329c-0.559,-0.134 -1.099,-0.334 -1.61,-0.596l-1.275,-0.652c-0.257,-0.132 -0.506,-0.279 -0.745,-0.44l-0.444,-0.299c-0.228,-0.153 -0.447,-0.32 -0.656,-0.498l-1.037,-0.886c-0.372,-0.317 -0.71,-0.671 -1.009,-1.055c-0.196,0.077 -0.392,0.154 -0.589,0.233c-0.204,0.082 -0.413,0.155 -0.624,0.218l-1.054,0.314c-0.421,0.126 -0.852,0.212 -1.289,0.26l-1.071,0.116c-0.429,0.046 -0.861,0.054 -1.292,0.024l-1.057,-0.075c-0.424,-0.03 -0.845,-0.098 -1.257,-0.202l-1.019,-0.257c-0.41,-0.103 -0.81,-0.242 -1.195,-0.415l-0.959,-0.43c-0.388,-0.175 -0.76,-0.383 -1.111,-0.622l-0.876,-0.597c-0.357,-0.243 -0.691,-0.517 -0.998,-0.82l-0.769,-0.755c-0.215,-0.212 -0.418,-0.437 -0.605,-0.675c-0.453,0.101 -0.915,0.157 -1.379,0.169l-1.63,0.042c-0.652,0.016 -1.304,-0.055 -1.938,-0.214l-1.554,-0.388c-0.627,-0.156 -1.23,-0.397 -1.794,-0.714l-1.396,-0.785c-0.569,-0.32 -1.092,-0.716 -1.555,-1.176l-1.156,-1.15c-0.233,-0.231 -0.45,-0.479 -0.649,-0.74c-3.14,-4.114 -3.893,-5.226 -4.211,-10.495c-0.022,-0.361 -0.016,-0.724 0.016,-1.084l0.161,-1.785c0.065,-0.722 0.238,-1.43 0.513,-2.101l0.681,-1.658c0.137,-0.334 0.3,-0.658 0.486,-0.969c1.668,-2.785 4.351,-4.671 6.508,-7.046c0.921,-1.017 1.823,-1.9 2.855,-2.8c0.154,-0.135 0.314,-0.263 0.478,-0.383l0.82,-0.602c0.328,-0.24 0.675,-0.453 1.039,-0.635l0.346,-0.173c1.055,-1.143 2.435,-2.471 3.143,-3.172c0.039,-0.054 0.079,-0.108 0.119,-0.16l0.557,-0.728c0.054,-0.383 0.122,-0.777 0.206,-1.184c0.052,-0.256 0.119,-0.509 0.199,-0.758l0.397,-1.235c0.16,-0.495 0.372,-0.972 0.633,-1.422l0.645,-1.109c0.26,-0.447 0.568,-0.865 0.917,-1.246l0.866,-0.947c0.351,-0.384 0.743,-0.729 1.168,-1.029l0.042,-0.029c2.124,-3.205 4.792,-5.647 7.799,-7.72c0.142,-0.863 0.263,-1.723 0.432,-2.516c0.073,-0.337 0.17,-0.67 0.289,-0.994l0.595,-1.606c0.238,-0.643 0.566,-1.249 0.975,-1.8l1.001,-1.349c0.378,-0.51 0.823,-0.968 1.321,-1.363c0.071,-0.743 0.197,-1.479 0.406,-2.26c-10.067,-4.921 -19.718,-10.63 -28.692,-17.227c-1.356,-0.997 -3.66,-2.449 -5.547,-3.967c-2.27,-1.826 -4.084,-3.872 -5.284,-5.748c-0.846,-0.792 -1.72,-1.581 -2.401,-2.317c-1.18,-1.276 -2.073,-2.574 -2.699,-3.768l-0.441,-0.956l-0.356,-0.886l-0.297,-1.021c-0.04,-0.033 -0.485,-0.398 -0.523,-0.43l-0.002,-0.001c-1.778,-1.504 -3.43,-3.544 -4.892,-5.357c-0.221,-0.274 -0.422,-0.564 -0.6,-0.867l-0.886,-1.503c-0.355,-0.602 -0.621,-1.252 -0.789,-1.93l-0.413,-1.659c-0.166,-0.671 -0.236,-1.361 -0.207,-2.052l0.073,-1.708c0.009,-0.219 0.028,-0.438 0.057,-0.655c-0.022,-0.028 -0.773,-1.028 -0.773,-1.028c-0.284,-0.378 -0.53,-0.783 -0.735,-1.208l-0.22,-0.456c-0.494,-0.564 -1.004,-1.221 -1.542,-2.007c-0.202,-0.294 -0.381,-0.604 -0.537,-0.925l-0.773,-1.591c-0.309,-0.637 -0.523,-1.316 -0.635,-2.015l-0.274,-1.71c-0.111,-0.692 -0.121,-1.395 -0.03,-2.089l0.095,-0.725c-0.659,-1.798 -1.009,-3.681 -1.015,-5.635c-0.001,-0.368 0.026,-0.737 0.081,-1.101l0.272,-1.807c0.109,-0.723 0.326,-1.425 0.646,-2.083l0.78,-1.607c0.316,-0.65 0.727,-1.249 1.219,-1.777l0.7,-0.749Z" style="fill:#431407;"/><g><path d="M185.992,382.282l0.659,0.276c1.11,-0.506 1.777,-1.126 2.983,-0.781c-0.453,0.987 -0.969,1.573 -1.642,2.411c-0.786,0.988 -1.423,1.677 -1.717,2.929c-0.124,0.069 -0.236,0.161 -0.372,0.207c-4.646,1.538 -9.107,2.905 -13.691,4.743c1.081,-0.839 2.218,-1.666 3.119,-2.711c2.948,-3.388 6.387,-5.627 10.661,-7.074Z" style="fill:#fdba74;fill-rule:nonzero;"/><path d="M335.48,407.042c8.105,-4.881 15.802,-10.853 24.132,-15.285c-0.151,0.252 -0.291,0.516 -0.45,0.769c-2.409,3.801 -8.145,3.767 -8.778,8.843c0.504,1.079 0.626,1.768 1.6,2.48c2.665,-1.665 4.897,-3.353 7.211,-5.478c1.287,-0.068 1.566,-0.034 2.662,0.747c0.11,0.069 0.199,0.184 0.297,0.276c-2.144,3.112 -9.444,5.271 -13.231,6.385c-1.029,0.31 -1.602,0.631 -2.455,1.263l-10.988,0Z" style="fill:#fdba74;fill-rule:nonzero;"/><path d="M169.837,373.064c1.056,-0.838 3.157,-3.172 3.309,-3.278c4.071,-2.846 1.834,-3.644 2.445,-6.614c1.561,-0.864 3.926,-0.431 5.688,-0.334c0.012,-1.225 -2.289,-1.114 -2.875,-2.607c1.972,-3.099 4.958,-4.813 8.069,-6.55c1.263,-2.458 1.614,-5.707 2.194,-8.41c3.376,4.343 6.052,10.778 9.215,15.618c-3.464,3.477 -12.277,2.689 -13.812,7.699l0.458,0.859c1.072,0.078 1.832,0.019 2.86,-0.232c1.188,-0.29 1.853,-0.163 3.031,0.216l0.116,0.662c-4.173,2.409 -11.053,2.905 -14.37,6.361l-2.135,1.511l-1.519,0.53l-0.724,1.639c-1.512,0.529 -2.402,0.173 -3.96,-0.114l1.049,1.952c-0.704,2.125 -3.092,2.389 -4.115,4.41l-1.8,0.356c-1.018,-0.643 -1.672,-0.965 -2.868,-1.137c-0.115,0.31 -0.234,0.609 -0.346,0.919c-0.11,0.31 -0.21,0.62 -0.315,0.93c-1,-1.309 -1.42,-1.585 -1.521,-3.262c1.217,-2.032 3.378,-3.215 4.961,-4.958c0.565,-0.624 1.119,-1.165 1.752,-1.717l0.863,0.496c0.835,-1.232 1.559,-2.077 2.706,-3.06c0.486,-0.906 0.816,-1.227 1.644,-1.885Z" style="fill:#c2410c;fill-rule:nonzero;"/><path d="M402.141,350.187l0.688,-0.122c0.118,0.141 0.234,0.284 0.355,0.423c5.148,5.907 20.915,12.696 23.291,19.182c-0.85,0.366 -1.527,0.439 -2.433,0.532c-1.065,0.109 -1.576,0.179 -2.386,0.948l-0.353,1.395c4.41,3.862 24.676,19.476 25.032,24.288l-0.686,0.528c-3.792,-1.149 -13.577,-13.46 -24.26,-15.171l-0.881,1.355c-0.733,-1.01 -0.331,-0.608 -1.338,-1.355c-3.5,-2.607 -6.618,-5.594 -10.267,-8.033c-4.014,-2.685 -8.379,-4.835 -12.39,-7.507c-1.592,-1.061 -2.786,-2.419 -4.497,-3.341c0.592,-3.379 5.65,-7.222 7.135,-10.609c0.673,-1.531 1.516,-1.778 2.99,-2.513Z" style="fill:#c2410c;fill-rule:nonzero;"/><path d="M392.016,363.309c1.711,0.922 2.905,2.28 4.497,3.341c4.011,2.672 8.376,4.822 12.39,7.507c3.649,2.439 6.767,5.426 10.267,8.033c1.007,0.747 0.605,0.345 1.338,1.355c1.038,0.517 2.692,1.022 3.338,1.964l-0.027,0.597l-1.365,1.057l-5.374,-1.309c-0.907,0.758 -1.006,0.941 -1.447,1.975c-1.021,-1.562 -0.37,-2.86 -1.779,-4.169l-0.671,0.149l-0.073,0.678c-0.175,1.481 -0.158,2.641 -1.235,3.778c-7.476,2.148 -16.197,-1.01 -23.54,-2.687c3.24,2.389 7.827,5.145 9.62,8.843l-0.004,0.666c-2.356,1.298 -5.124,-1.436 -7.232,0.126l-0.497,2.171c-1.342,0.436 -1.632,0.482 -2.984,-0.23c-0.955,-0.505 -1.89,-1.344 -2.749,-1.998l-1.058,0.092l1.08,1.975l-0.505,0.482l-1.035,-0.712c-0.253,0.092 -0.505,0.173 -0.758,0.253c-3.287,1.022 -5.308,-1.7 -8.439,-0.999l-0.091,0.448l2.028,1.676l-0.501,0.644c-1.924,-0.092 -3.453,-0.77 -5.211,-1.47c0.019,0.298 0.099,0.585 0.054,0.884c-0.047,0.298 -0.215,0.574 -0.323,0.861c-1.809,0.712 -4.95,1.413 -6.786,0.528c-0.269,-0.137 -0.526,-0.287 -0.79,-0.424c-0.098,-0.092 -0.187,-0.207 -0.297,-0.276c-1.096,-0.781 -1.375,-0.815 -2.662,-0.747c-2.314,2.125 -4.546,3.813 -7.211,5.478c-0.974,-0.712 -1.096,-1.401 -1.6,-2.48c0.633,-5.076 6.369,-5.042 8.778,-8.843c0.159,-0.253 0.299,-0.517 0.45,-0.769c0.307,-0.471 21.836,-18.132 24.104,-19.829c1.084,-0.813 1.597,-1.305 2.227,-2.527c1.269,-0.979 2.582,-1.47 2.856,-3.096l-0.927,-1.109c2.229,-0.775 2.099,0.077 4.144,-1.887Z" style="fill:#fed7aa;fill-rule:nonzero;"/><path d="M197.882,360.889c0.153,2.253 0.298,2.426 1.942,3.897c0.169,0.151 0.351,0.288 0.525,0.433c4.577,3.824 8.775,8.867 13.032,13.091c7.04,6.997 14.431,13.603 22.175,19.82c3.755,2.998 7.525,5.846 11.508,8.533l0.029,0.379l-32.487,0c-1.284,-0.861 -2.263,-1.401 -2.858,-2.917c0.23,-1.631 1.292,-2.435 2.397,-3.56l0.537,-0.54l-0.111,-0.735c-4.551,-0.643 -10.212,1.229 -14.6,2.366l-0.667,-0.402l0.456,-0.93c0.722,-0.429 1.436,-0.873 2.141,-1.332c1.502,-0.988 2.533,-1.769 2.937,-3.618c-0.569,-0.85 -0.53,-1.011 -1.53,-1.447c-2.952,-1.321 -7.392,-0.919 -10.345,0.195l-4.697,1.757l-0.443,-0.298c2.19,-1.987 6.996,-4.491 8.229,-6.937c-0.235,-0.275 -0.42,-0.608 -0.707,-0.838c-2.218,-1.746 -6.53,-1.355 -9.07,-0.689c0.294,-1.252 0.931,-1.941 1.717,-2.929c0.673,-0.838 1.189,-1.424 1.642,-2.411c-1.206,-0.345 -1.873,0.275 -2.983,0.781l-0.659,-0.276l0.894,-1.895l-0.7,-0.654c-1.885,0.08 -3.503,0.666 -4.785,2.101c-0.384,0.437 -0.671,0.942 -1.06,1.367c-0.157,0.172 -0.362,0.298 -0.543,0.436l-0.979,-1.481c-2.348,-0.322 -9.946,3.652 -14.058,4.226c1.023,-2.021 3.411,-2.285 4.115,-4.41l-1.049,-1.952c1.558,0.287 2.448,0.643 3.96,0.114l0.724,-1.639l1.519,-0.53l2.135,-1.511c3.317,-3.456 10.197,-3.952 14.37,-6.361l-0.116,-0.662c-1.178,-0.379 -1.843,-0.506 -3.031,-0.216c-1.028,0.251 -1.788,0.31 -2.86,0.232l-0.458,-0.859c1.535,-5.01 10.348,-4.222 13.812,-7.699Z" style="fill:#fed7aa;fill-rule:nonzero;"/><path d="M249.681,400.795c-18.454,-15.366 -35.72,-25.559 -49.213,-46.253c-1.929,-2.96 -4.845,-7.218 -5.471,-10.716c-0.166,-0.936 0.488,-1.3 1.036,-1.997c-0.711,-1.316 -2.061,-2.453 -2.635,-3.751c-0.627,-1.417 -0.264,-1.835 0.366,-3.087c2.82,-0.017 5.435,2.733 8.263,3.352c3.63,0.796 6.965,2.333 10.51,3.361c5.526,1.603 11.396,2.699 17.05,3.777c3.13,0.597 9.271,0.014 11.688,1.377c0.438,0.247 2.628,1.762 2.628,1.762c6.992,-0.031 16.042,1.863 22.808,3.75c2.017,0.563 2.43,-1.113 4.286,-1.179l0.835,1.551l2.147,0.401c3.455,-2.666 8.122,-2.871 12.295,-2.881c0.795,0.964 1.424,1.806 2.465,2.523l2.005,-1.831c1.899,-0.294 4.336,0.74 6.19,1.354c8.125,2.691 34.212,-2.201 43.96,-3.448c5.602,-1.566 11.661,-0.988 17.357,-2.011c0.28,-1.296 0.081,-0.673 0.589,-1.871c3.168,-0.412 5.542,-1.066 8.549,-2.074l0.772,-0.254c9.494,-2.978 20.416,-3.707 29.523,-7.921l0.812,0.317c0.402,3.129 -1.718,4.906 -1.797,7.697l-0.346,0.451c-0.107,0.247 -0.218,0.492 -0.321,0.74c-0.588,1.407 -0.203,0.396 -0.515,1.538c-0.621,2.268 -2.387,4.066 -2.947,6.39c-3.19,2.308 -3.705,6.597 -6.783,8.762c-0.13,0.911 -0.157,1.69 -0.088,2.608c-1.601,1.277 -1.077,2.454 -2.464,3.745l-1.539,0.231c-0.104,0.255 -0.195,0.516 -0.308,0.766c-0.722,1.6 -2.471,2.528 -3.691,3.731c-15.465,15.263 -35.49,23.451 -53.287,35.337l-66.66,0c-2.008,-1.355 -3.932,-2.86 -5.88,-4.307l-2.189,-1.94Z" style="fill:#15803d;fill-rule:nonzero;"/><path d="M223.932,364.185c0.98,-0.002 2.09,1.258 2.641,2.72c0.295,0.783 6.36,0.189 8.251,1.547l-0.171,0.705c0,-0 -4.177,-0.525 -6.797,0.362c-1.719,0.582 -1.476,2.678 -2.503,2.958c-1.027,0.28 -2.316,-0.444 -3.66,-1.278c-0.858,-1.483 -1.399,-2.409 -1,-4.284c0.474,-2.236 2.259,-2.728 3.239,-2.73Z" style="fill:#fbf2ea;fill-rule:nonzero;"/><path d="M241.752,68.374c2.31,-2.69 3.478,-3.739 7.082,-3.927c15.833,-0.825 48.479,22.112 62.344,29.878c6.436,3.605 13.441,6.535 20.245,9.382c3.025,1.266 7.65,3.575 10.957,3.003c6.268,-1.083 26.675,-13.779 33.867,-17.477c11.869,-6.104 47.84,-21.495 60.479,-21.329c2.167,0.029 4.109,0.539 5.722,2.043c6.364,5.934 6.734,21.43 6.789,29.736c0.117,17.526 -7.928,48.224 -12.551,65.276c-1.171,4.317 -4.271,9.788 -4.252,14.177c0.019,4.248 4.063,11.101 5.756,15.346c2.865,7.183 12.271,32.86 11.961,39.138c-4.796,3.615 -11.198,-0.193 -17.825,7.608c-1.634,-0.476 -2.633,-0.329 -4.28,-0.096c-7.049,-13.697 -15.354,-36.087 -25.45,-46.914c-0.655,2.468 -1.415,4.85 -1.423,7.422c-0.617,-0.303 -1.199,-0.736 -1.777,-1.109c0.029,-0.557 0.075,-0.688 -0.111,-1.302c-0.64,-2.105 -2.829,-4.769 -3.94,-6.735c-7.114,-12.576 -14.474,-22.701 -27.792,-29.228c-10.275,-5.036 -21.87,-5.607 -32.663,-1.9c-12.274,3.852 -20.649,11.722 -26.602,23.011c-3.339,6.331 -6.697,20.025 -8.423,28.131c-0.754,3.54 -1.196,6.014 -1.189,6.345c0.129,6.121 -1.225,13.319 0.538,19.165c-5.215,-0.36 -4.141,1.131 -9.239,0.018c0.78,-9.043 -0.122,-17.343 -1.57,-26.27c-0.474,1.977 -0.789,3.768 -0.888,5.8c-1.885,1.049 -5.95,0.29 -8.193,0.199c-0.574,-1.303 -1.066,-2.832 -2.201,-3.752c-0.068,0.275 -0.159,0.544 -0.202,0.824c-0.411,2.694 1.36,5.657 1.056,8.794c-0.779,8.07 -2.595,14.68 -6.78,21.672c-1.255,2.097 -3.085,4.251 -4.124,6.397l0.956,1.03c0.936,-1.246 2.418,-2.761 2.631,-4.291l0.267,0.369l0.563,-0.335l-0.308,0.732l-0.279,-0.365l0.603,-0.595c-3.938,9.088 -12.023,16.789 -21.217,20.481c-0.319,0.129 -0.642,0.251 -0.964,0.375c-2.788,1.009 -5.262,1.635 -8.231,1.89c-14.505,1.247 -25.36,-6.385 -35.916,-15.272c-2.921,-2.693 -11.855,-11.474 -12.287,-15.005c-6.585,-10.12 -8.822,-20.19 -10.807,-31.945c-4.975,7.227 -6.801,15.115 -11.051,22.5c-0.807,1.404 -2.156,3.449 -3.67,4.182c-1.61,0.779 -16.37,2.295 -20.429,3.346c0.037,-0.172 0.072,-0.345 0.112,-0.518c2.034,-8.88 6.995,-18.288 11.086,-26.419c2.91,-5.786 18.424,-31.653 18.14,-36.129c-0.202,-3.206 -5.734,-14.944 -7.12,-19.192c-3.355,-10.287 -6.609,-21.128 -8.49,-31.793c-2.599,-14.737 -3.446,-44.472 2.636,-57.773c24.526,3.23 45.169,13.195 66.474,25.018c-1.957,1.595 -5.261,3.627 -6.196,5.982l0.141,0.819c3.259,-0.006 7.668,-4.612 10.731,-6.087c3.306,-1.59 7.286,-2.159 10.933,-2.341c5.889,-0.297 11.418,1.333 16.762,3.664c0.726,0.317 3.018,1.645 3.665,1.664c0.37,0.012 0.699,-0.251 1.048,-0.376c0.62,-1.386 0.774,-1.962 0.193,-3.419c-3.126,-7.848 -17.944,-19.374 -25.297,-23.523Z" style="fill:#c2410c;fill-rule:nonzero;"/><path d="M313.473,248.565c20.187,37.918 100.98,16.901 85.456,-47.068c0.008,-2.572 3.012,-4.811 3.667,-7.279c10.096,10.827 18.401,33.217 25.45,46.914c1.647,-0.233 2.646,-0.38 4.28,0.096c5.607,-0.197 16.308,-2.221 20.982,1.516c0.178,0.143 6.261,1.023 7.149,2.24c0.308,0.423 -4.799,2.812 -4.47,3.219c0.494,0.626 1.091,1.14 1.669,1.688c1.759,0.429 3.219,0.625 5.038,0.493c0.873,-0.064 1.716,-0.155 2.593,-0.116c1.324,0.059 1.328,-0.1 2.273,0.928c-0.643,2.063 -3.382,1.752 -4.847,3.498c-0.013,1.347 0.851,3.382 0.998,4.248l-1.84,1.084c0.027,1.02 -0.204,0.966 0.441,1.554c1.692,1.544 7.209,1.53 7.209,1.53c-0.101,0.576 -9.774,9.541 -9.774,9.541l5.986,0.019c-3.296,3.081 -9.938,10.468 -9.938,10.468c2.608,-0.215 4.695,-1.22 7.06,-2.25c-3.161,3.179 -14.431,9.646 -15.538,12.871c0.583,0.748 0.903,1.145 1.194,2.064c-3.853,2.612 -11.313,3.473 -13.894,7.243c1.06,1.188 2.457,1.038 3.993,1.287c-1.359,1.687 -5.037,2.882 -6.973,4.063c-4.511,2.752 -8.286,6.697 -12.818,9.371c-34.919,20.598 -105.245,28.971 -145.371,26.439c-13.318,-0.841 -34.839,-4.523 -47.662,-8.116c-23.464,-6.574 -46.647,-16.413 -66.33,-30.882c-2.069,-1.52 -6.576,-4.153 -7.642,-6.397c-0.914,-1.923 -4.449,-3.897 -4.588,-5.46c1.216,-0.043 2.252,-0.082 3.418,-0.456c-0.391,-2.253 -6.19,-4.667 -8.026,-6.219c-1.163,-0.984 -2.18,-2.374 -3.136,-3.559c1.636,0.101 3.273,0.182 4.911,0.242l0.455,-0.613c-0.913,-2.336 -3.89,-3.783 -5.205,-6.132c-0.768,-1.372 -1.596,-2.409 -2.652,-3.576l-0.438,-0.478c0.071,-0.321 0.13,-0.647 0.212,-0.967c0.069,-0.262 0.163,-0.516 0.245,-0.774c-1.486,-0.575 -2.023,-0.596 -2.942,-1.941c0.513,-0.798 0.203,-0.506 1.154,-1.038c0.242,-0.135 0.49,-0.259 0.736,-0.389l-0.17,-1.346c-1.037,-1.318 -2.573,-2.732 -2.578,-4.487c1.883,-0.719 3.215,-1.593 4.072,-3.436c-0.582,-0.563 -0.805,-0.714 -1.036,-1.512c1.313,-0.387 2.036,-0.298 3.325,0.031c1.263,0.322 2.382,0.539 3.679,0.66l0.204,-1.264c1.04,-0.014 1.884,-0.128 2.892,-0.389c-0.627,-1.069 -0.904,-1.277 -1.91,-1.934c-1.709,-1.116 -3.324,-2.247 -4.918,-3.529l0.211,-0.634c0.881,-0.221 1.769,-0.481 2.659,-0.658c0.287,-0.057 0.576,-0.097 0.865,-0.146c-0.264,-1.358 -0.596,-2.696 -0.926,-4.04c0.572,0.423 1.239,1.192 1.96,1.151l-0.837,-2.196c0.398,-1.698 2.381,-3.572 3.484,-4.945c4.059,-1.051 18.819,-2.567 20.429,-3.346c1.514,-0.733 2.863,-2.778 3.67,-4.182c4.25,-7.385 6.076,-15.273 11.051,-22.5c1.985,11.755 4.222,21.825 10.807,31.945c0.432,3.531 9.366,12.312 12.287,15.005c10.556,8.887 21.411,16.519 35.916,15.272c2.969,-0.255 5.443,-0.881 8.231,-1.89c0.322,-0.124 0.645,-0.246 0.964,-0.375c8.899,-3.573 16.759,-10.903 20.825,-19.61l0.068,0.089l0.308,-0.732l-0.113,0.067c0.043,-0.098 0.086,-0.196 0.129,-0.295l-0.557,0.55l-0.022,0.013l-0.267,-0.369c-0.213,1.53 -1.695,3.045 -2.631,4.291l-0.956,-1.03c1.039,-2.146 2.869,-4.3 4.124,-6.397c4.185,-6.992 6.001,-13.602 6.78,-21.672c0.304,-3.137 -1.467,-6.1 -1.056,-8.794c0.043,-0.28 0.134,-0.549 0.202,-0.824c1.135,0.92 1.627,2.449 2.201,3.752c2.243,0.091 6.308,0.85 8.193,-0.199c0.099,-2.032 0.414,-3.823 0.888,-5.8c1.434,8.837 2.331,17.06 1.593,25.996c2.848,-0.548 5.677,-1.231 8.494,-1.846c-0.78,-9.043 0.122,-17.342 1.57,-26.27c0.474,1.977 0.789,3.768 0.888,5.8c0.631,0.352 8.939,14.316 12.523,33.119Zm-42.359,0.551l-0.211,-0.276l0.046,-0.045l0.428,-0.255c-0.086,0.193 -0.174,0.385 -0.263,0.576Z" style="fill:#fed7aa;"/><path d="M371.653,178.115c-1.109,-1.492 -2.512,-2.751 -3.898,-3.988c-5.91,-5.271 -17.772,-11.361 -25.855,-10.78c-1.358,0.098 -2.523,0.035 -3.874,-0.146l-0.536,-0.076c-12.707,3.443 -22.481,10.018 -29.149,21.577c-5.867,10.172 -6.885,21.166 -7.654,32.71c-0.063,0.949 -0.089,1.552 -0.484,2.382c-2.407,-10.114 1.265,-26.322 6.061,-35.417c5.953,-11.289 14.329,-19.159 26.602,-23.011c10.793,-3.707 22.388,-3.136 32.663,1.9c13.318,6.527 20.679,16.652 27.792,29.228c1.112,1.966 5.974,12.476 6.26,13.954c2.678,13.873 -1.478,30.599 -9.48,42.138c-7.186,10.364 -19.604,18.985 -32.063,21.405c-0.261,0.05 -0.525,0.077 -0.788,0.114c-3.202,0.972 -6.885,1.082 -10.214,0.802c-8.898,-0.75 -19.32,-4.882 -25.062,-11.726c-0.076,-0.369 0.45,-0.633 1.425,-0.806c6.735,5.838 17.839,9.018 26.791,8.53c0.902,-0.05 8.346,-1.455 8.346,-1.455c7.462,-0.597 16.873,-6.828 21.762,-12.216c8.126,-8.959 12.587,-20.228 11.985,-32.356c-0.855,-17.253 -8.004,-31.191 -20.63,-42.763Z" style="fill:#431407;"/><ellipse cx="346.617" cy="214.202" rx="45.766" ry="53.558" style="fill:#fbf2ea;"/><path d="M322.678,283.903c0.062,-0.301 0.536,0.843 0.536,1.748c0,9.109 -13.717,16.505 -30.614,16.505c-16.896,-0 -30.614,-7.396 -30.614,-16.505c0,-0.315 0.252,-0.319 0.377,-0.015c3.037,7.391 15.274,12.925 29.891,12.925c15.738,0 28.719,-6.417 30.424,-14.658Z" style="fill:#431407;"/><path d="M289.321,252.581c4.395,-0.316 8.893,-0.432 13,1.433c2.815,1.279 5.266,3.508 6.323,6.468l0,0.001c0.107,0.304 0.41,1.558 0.455,1.878c0.045,0.319 0.074,0.64 0.088,0.962c0.014,0.323 -0.054,1.61 -0.103,1.929c-0.048,0.319 -0.705,2.475 -0.843,2.766c-2.391,5.087 -7.137,7.056 -12.115,8.732c-0.01,0.004 -0.021,0.006 -0.031,0.006c-2.089,0.139 -4.258,0.385 -6.322,0.352c-2.082,-0.034 -4.058,-0.352 -5.742,-1.341c-3.357,-1.97 -7.045,-6.318 -8.061,-10.843c-0.513,-2.284 -0.207,-4.618 1.159,-6.554c2.777,-3.937 7.745,-4.939 12.178,-5.787c0.004,-0.001 0.009,-0.001 0.014,-0.002Z" style="fill:#431407;fill-rule:nonzero;"/><ellipse cx="344.485" cy="221.71" rx="33.299" ry="41.542" style="fill:#431407;"/><path d="M321.843,210.488c3.37,4.815 22.111,-9.97 17.063,-15.744c-11.037,-12.624 -21.85,8.906 -17.063,15.744Z" style="fill:#fbf2ea;"/><path d="M359.771,136.211c3.274,-0.027 6.43,1.127 9.279,2.651c0.965,0.517 0.58,0.147 0.974,1.419c-5.213,3.046 -12.866,2.329 -18.695,3.907c-3.099,0.837 -6.244,3.064 -8.984,4.718c-2.521,1.389 -4.651,2.806 -7.545,2.537l-0.556,-1.446c0.481,-1.202 0.935,-2.138 1.778,-3.139c6.011,-7.14 14.85,-9.657 23.749,-10.647Z" style="fill:#431407;fill-rule:nonzero;"/><path d="M253.565,137.395c6.281,0.099 13.649,0.849 19.231,3.823l0.345,1.165c-4.091,3.286 -24.989,4.335 -31.607,5.245c-4.838,0.852 -14.072,3.713 -18.717,2.583l-0.396,-2.002c9.608,-6.684 19.533,-10.227 31.144,-10.814Z" style="fill:#431407;fill-rule:nonzero;"/><path d="M230.353,102.872c8.321,-0.558 15.978,1.341 23.417,5.042c2.568,1.277 6.998,3.487 7.959,6.26l-0.638,0.876l-2.041,-0.107c-6.619,-1.796 -28.846,-5.038 -32.723,-8.652c-0.649,-0.605 -0.387,-0.96 -0.342,-1.765c1.443,-1.332 2.469,-1.283 4.368,-1.654Z" style="fill:#431407;fill-rule:nonzero;"/><path d="M176.357,88.847c6.657,-3.178 38.056,20.523 41.775,26.681c3.719,6.158 -13.696,5.73 -19.459,10.266c-6.294,4.953 -14.89,17.986 -18.303,19.453c-3.331,1.431 -10.67,-53.223 -4.013,-56.4Z" style="fill:#431407;fill-rule:nonzero;"/><path d="M379.597,112.085c3.425,-6.441 38.955,-26.441 47.172,-22.376c8.217,4.065 1.897,65.842 -1.884,64.488c-3.78,-1.353 -11.039,-18.275 -18.669,-25.84c-7.372,-7.309 -30.045,-9.83 -26.619,-16.272Z" style="fill:#431407;fill-rule:nonzero;"/><ellipse cx="241.541" cy="214.202" rx="45.766" ry="53.558" style="fill:#fbf2ea;"/><path d="M196.031,237.389c-5.276,-9.799 -5.385,-20.873 -4.401,-31.642c0.236,-2.585 2.415,-6.651 2.554,-6.87c-0.405,-0.592 -0.82,-1.16 -1.252,-1.731c1.949,-6.856 7.506,-15.734 12.161,-21.217c8.239,-9.707 20.212,-17.599 33.158,-18.549c11.306,-0.83 23.879,3.421 32.363,10.923c4.198,3.712 9.466,10.118 9.778,15.915c-5.834,-9.28 -18.139,-17.369 -28.779,-19.848c-10.932,-2.545 -23.149,0.866 -32.35,6.953c-12.095,8.001 -20.02,21.661 -22.753,35.749c-2.604,13.421 0.808,28.054 8.45,39.311c1.793,2.643 5.202,7.673 7.965,9.186c7.872,7.028 17.275,11.39 28.053,10.922c1.447,-0.062 5.583,-0.949 5.583,-0.949c9.066,-2.028 18.74,-6.884 25.515,-12.812c0.936,-1.246 3.478,-4.485 3.478,-4.485c-3.938,9.088 -16.071,16.789 -25.265,20.481c-0.319,0.129 -0.642,0.251 -0.964,0.375c-2.788,1.009 -5.262,1.635 -8.231,1.89c-14.505,1.247 -25.36,-6.385 -35.916,-15.272c-0.105,-2.94 -7.453,-14.321 -9.147,-18.33Z" style="fill:#431407;fill-rule:nonzero;"/><ellipse cx="243.837" cy="221.71" rx="33.299" ry="41.542" style="fill:#431407;"/><path d="M255.242,192.693c-5.627,1.697 2.561,24.119 9.623,21.129c15.441,-6.538 -1.631,-23.538 -9.623,-21.129Z" style="fill:#fbf2ea;"/></g></g><g><g><path d="M98.008,383.841c1.919,-2.433 4.276,-4.482 6.947,-6.039l3.659,-2.134c2.042,-1.191 4.242,-2.08 6.535,-2.641l2.472,-0.604c1.827,-0.447 3.698,-0.682 5.578,-0.7l2.993,-0.03c1.954,-0.019 3.904,0.196 5.807,0.641l2.883,0.673c1.746,0.408 3.443,1.006 5.061,1.785l2.429,1.169c1.609,0.775 3.128,1.722 4.531,2.824c9.717,2.391 24.809,7.533 37.654,11.038c4.266,1.165 8.256,2.139 11.635,2.7c1.907,0.316 3.448,0.71 4.469,0.462c7.194,-1.748 11.758,-3.16 15.602,-4.285l0.947,-0.516c0.051,-0.021 1.016,-0.297 2.906,-0.701c-0.219,0.006 -0.363,0.009 -0.363,0.009c0,0 1.985,-0.341 4.763,-0.864c0.295,-0.055 0.589,-0.098 0.881,-0.128c0.024,-0.004 0.038,-0.006 0.039,-0.006c0.486,-0.109 0.979,-0.203 1.478,-0.283c2.816,-0.451 5.987,-0.823 9.887,-1.086c1.568,-0.491 3.181,-0.824 4.815,-0.992l2.671,-0.276c2.459,-0.254 4.941,-0.133 7.364,0.356l3.496,0.707c5.147,-2.58 11.989,-5.316 18.28,-7.312l2.974,-2.224c0.506,-0.378 1.045,-0.71 1.609,-0.992l4.014,-2c0.556,-0.278 1.136,-0.505 1.732,-0.68l4.261,-1.249c0.592,-0.174 1.199,-0.295 1.813,-0.362l4.412,-0.482c0.617,-0.067 1.239,-0.08 1.858,-0.037l4.468,0.308c0.628,0.043 1.252,0.143 1.863,0.299l4.413,1.122c0.622,0.158 1.228,0.373 1.811,0.642l4.223,1.947c0.293,0.135 0.58,0.284 0.859,0.446c0.688,0.397 1.361,0.799 2.02,1.206c8.695,1.939 15.76,5.18 21.57,9.071c5.096,-2.499 11.616,-5.1 17.641,-7.014l2.975,-2.225c0.506,-0.378 1.045,-0.71 1.609,-0.992l4.014,-2c0.556,-0.278 1.136,-0.505 1.732,-0.68l4.261,-1.249c0.592,-0.174 1.199,-0.295 1.813,-0.362l4.412,-0.482c0.617,-0.067 1.239,-0.08 1.858,-0.037l4.468,0.308c0.628,0.043 1.252,0.143 1.863,0.299l4.413,1.122c0.622,0.158 1.228,0.373 1.811,0.642l4.223,1.947c0.293,0.135 0.58,0.284 0.859,0.446c0.69,0.398 1.365,0.802 2.026,1.209c6.992,1.567 12.926,3.986 18.004,6.902l1.096,-0.348c0.431,-0.137 0.87,-0.245 1.315,-0.325c5.288,-0.951 10.026,-1.203 14.443,-1.069l4.77,-2.462c0.79,-0.408 1.628,-0.713 2.494,-0.91l6.273,-1.423c0.881,-0.2 1.785,-0.285 2.688,-0.254l6.533,0.231c0.902,0.031 1.796,0.18 2.66,0.44l6.11,1.844c0.848,0.256 1.66,0.618 2.418,1.078c-0,0 2.412,1.464 2.411,1.464c1.542,-0.052 3.039,-0.05 4.502,-0.006l4.772,-2.464c0.79,-0.408 1.628,-0.713 2.494,-0.91l6.273,-1.423c0.882,-0.2 1.786,-0.285 2.689,-0.254l6.532,0.231c0.902,0.031 1.796,0.18 2.661,0.44l6.109,1.844c0.848,0.256 1.66,0.618 2.418,1.078l4.755,2.886c2.265,0.71 4.416,1.746 6.388,3.076l2.949,1.989c2.051,1.383 3.884,3.068 5.437,4.999l2.212,2.75c1.594,1.981 2.875,4.197 3.799,6.571l1.396,3.588c0.995,2.556 1.562,5.261 1.678,8.004l0.202,4.778c0.111,2.625 -0.193,5.251 -0.899,7.779l-1.116,3.997c-0.718,2.572 -1.843,5.009 -3.332,7.219l-2.421,3.593c-0.704,1.046 -1.487,2.035 -2.341,2.961c-0.041,0.045 -0.083,0.089 -0.124,0.134c-0.987,9.057 -2.172,17.467 -2.996,21.331c-0.8,3.752 -1.465,7.107 -2.028,10.123l0.626,0.771c1.452,1.786 2.649,3.767 3.557,5.887l1.442,3.366c0.919,2.146 1.533,4.411 1.824,6.73l0.429,3.423c0.255,2.037 0.258,4.097 0.01,6.135l-0.353,2.896c-0.218,1.782 -0.626,3.536 -1.219,5.229l-0.967,2.762c-0.564,1.611 -1.291,3.158 -2.17,4.618l-1.658,2.754c-0.411,0.682 -0.854,1.344 -1.328,1.984c-4.281,5.773 -12.658,11.885 -13.766,12.607c-0.374,0.244 -0.762,0.463 -1.163,0.657l-5.754,2.785c-0.798,0.385 -1.64,0.669 -2.507,0.843l-6.165,1.238c-0.86,0.173 -1.739,0.237 -2.615,0.191l-6.277,-0.33c-0.159,-0.009 -0.318,-0.021 -0.476,-0.036c-0.528,0.126 -1.066,0.212 -1.608,0.255l-1.957,0.156c-0.211,0.074 -0.425,0.141 -0.641,0.202l-7.227,2.017c-1.012,0.282 -2.06,0.411 -3.109,0.382l-7.529,-0.209c-1.067,-0.029 -2.124,-0.222 -3.134,-0.571l-6.078,-2.099l-0.211,0.042c-0.86,0.173 -1.738,0.237 -2.614,0.191l-6.278,-0.33c-0.159,-0.009 -0.317,-0.021 -0.476,-0.036c-0.528,0.126 -1.066,0.212 -1.608,0.255l-1.956,0.156c-0.212,0.074 -0.426,0.141 -0.642,0.202l-7.227,2.017c-1.012,0.282 -2.06,0.411 -3.109,0.382l-7.529,-0.209c-1.067,-0.029 -2.123,-0.222 -3.133,-0.571l-7.307,-2.524c-0.51,-0.176 -1.006,-0.391 -1.483,-0.643c-3.083,-1.631 -5.659,-3.265 -7.823,-4.84c-0.811,0.547 -1.694,0.978 -2.623,1.281l-6.79,2.212c-0.948,0.309 -1.935,0.481 -2.931,0.511l-6.303,0.19c-1.016,0.676 -2.082,1.276 -3.189,1.794l-3.678,1.723c-2.138,1.001 -4.408,1.688 -6.74,2.04l-3.931,0.594c-2.239,0.338 -4.513,0.363 -6.759,0.076l-3.726,-0.477c-2.077,-0.265 -4.113,-0.797 -6.058,-1.581l-3.274,-1.321c-1.801,-0.726 -3.51,-1.664 -5.093,-2.794l-2.754,-1.967c-1.507,-1.076 -2.888,-2.318 -4.119,-3.705l-2.218,-2.497c-0.666,-0.751 -1.286,-1.542 -1.857,-2.367l-1.074,0.022c-0.369,0.388 -0.75,0.765 -1.143,1.128c-0.374,0.346 -0.772,0.665 -1.191,0.953l-6.013,4.132c-0.833,0.572 -1.742,1.021 -2.701,1.334l-6.79,2.212c-0.948,0.309 -1.935,0.481 -2.931,0.511l-6.303,0.19c-1.017,0.676 -2.082,1.276 -3.189,1.794l-3.678,1.723c-2.139,1.001 -4.408,1.688 -6.74,2.04l-3.931,0.594c-2.239,0.338 -4.513,0.363 -6.759,0.076l-3.726,-0.477c-2.078,-0.265 -4.113,-0.797 -6.058,-1.581l-3.274,-1.321c-1.801,-0.726 -3.51,-1.664 -5.093,-2.794l-2.754,-1.967c-1.131,-0.807 -2.191,-1.709 -3.171,-2.695l-3.305,0.975c-0.847,0.249 -1.722,0.391 -2.604,0.421l-5.317,0.183c-1.221,0.918 -2.523,1.721 -3.892,2.397l-2.585,1.277c-2.193,1.084 -4.534,1.834 -6.947,2.224l-4.803,0.778c-2.925,0.473 -5.911,0.412 -8.814,-0.181l-5.113,-1.045c-2.634,-0.539 -5.163,-1.507 -7.487,-2.868l-5.01,-2.933c-1.258,-0.737 -2.448,-1.584 -3.555,-2.53c-2.242,1.374 -4.285,2.493 -6.097,3.396c-10.865,5.42 -19.147,5.85 -23.02,5.739c-2.562,-0.072 -4.896,-0.328 -7.022,-0.7l-1.262,0.611c-1.896,0.919 -3.902,1.589 -5.967,1.994l-2.753,0.541c-2.159,0.423 -4.365,0.554 -6.558,0.389l-3.173,-0.24c-2.376,-0.179 -4.714,-0.705 -6.94,-1.56l-3.082,-1.183c-0.053,-0.02 -0.106,-0.041 -0.16,-0.062c-0.102,0.046 -0.204,0.091 -0.308,0.133l-7.044,2.92c-0.975,0.405 -2.004,0.659 -3.054,0.756l-7.423,0.685c-1.038,0.096 -2.083,0.037 -3.103,-0.176l-7.3,-1.522c-1.032,-0.215 -2.027,-0.585 -2.95,-1.097l-6.673,-3.7c-0.466,-0.258 -0.912,-0.552 -1.334,-0.877c-4.298,-3.32 -8.453,-7.888 -11.958,-13.678c-13.597,-9.369 -27.188,-27.675 -30.189,-56.953c-1.887,-18.405 1.946,-37.326 13.579,-53.662c8.39,-11.78 21.143,-22.71 40.473,-29.969Z" style="fill:#431407;"/><path d="M190.235,450.523c-0.199,-0.11 -0.32,-0.185 -0.361,-0.21c0.119,0.073 0.24,0.143 0.361,0.21Zm57.136,57.338c-3.022,2.381 -7.068,3.049 -10.712,1.723c-1.118,-0.407 -2.146,-0.983 -3.058,-1.694c-0.08,0.018 -0.16,0.036 -0.24,0.053l-1.579,0.33c-0.618,0.129 -1.24,0.205 -1.86,0.228l-0.798,1.895l-2.034,2.751l-2.309,1.897l-2.584,1.278l-4.804,0.777l-5.113,-1.045l-5.01,-2.933l-3.827,-4.066l-2.125,-4.21l-0.652,-3.134l0.056,-3.217l1.823,-5.385l1.505,-1.986c-0.828,-0.083 -1.643,-0.259 -2.431,-0.524c-11.246,12.79 -21.041,19.467 -27.331,22.604c-5.41,2.699 -9.453,3.225 -11.383,3.17c-1.429,-0.041 -2.716,-0.19 -3.873,-0.413l-3.902,-1.176l-3.773,-2.21l-0.949,-0.991c-0.322,0.842 -0.573,1.432 -0.73,1.718l-1.48,2.126l-2.313,2.02l-2.642,1.279l-2.754,0.541l-3.173,-0.24l-3.081,-1.183l-1.939,-1.387l-1.417,-1.624c-2.093,0.425 -4.323,0.687 -6.698,0.749c-2.117,0.056 -4.351,-0.005 -6.702,-0.235c-0.921,1.512 -2.201,2.815 -3.777,3.77c-3.946,2.39 -8.943,2.106 -12.597,-0.716c-3.19,-2.464 -6.055,-6.371 -8.212,-11.402c-1.538,-0.901 -3.107,-1.892 -4.705,-2.981c-9.25,-6.308 -17.67,-19.176 -19.711,-39.096c-1.287,-12.552 1.155,-25.5 9.089,-36.641c6.938,-9.741 18.244,-18.316 35.816,-23.417c0.388,-0.633 0.731,-1.235 1.015,-1.815l2.91,-3.761l3.659,-2.133l2.472,-0.605l2.993,-0.029l2.883,0.673l2.429,1.169l3.691,3.513c14.259,1.533 25.962,10.903 30.503,21.255c4.679,10.665 3.171,22.41 -7.893,30.784c1.023,1.117 1.832,2.453 2.349,3.953c1.965,5.701 1.817,11.058 0.83,15.919c0.037,1.18 -0.012,2.494 -0.156,3.955c0.012,-0.004 0.024,-0.008 0.036,-0.011l3.477,-0.657l4.147,0.311l4.244,1.733l0.811,0.7c7.742,-8.239 15.701,-18.964 22.104,-27.291c0.154,-0.2 0.308,-0.404 0.46,-0.612c-2.067,0.129 -4.186,-0.317 -6.111,-1.392l-2.615,-1.747l-2.629,-2.543l-1.643,-2.298l-1.417,-3.041l-0.881,-5.478l1.112,-5.747l1.364,-2.876l1.753,-2.368l2.416,-2.105l3.556,-1.799c2.136,-0.766 6.196,-1.215 15.19,-3.4c11.945,-2.903 16.228,-4.886 22.605,-6.087l0.002,0.023l2.58,-0.428l-0.846,0.103c2.851,-0.457 6.163,-0.794 10.559,-0.996l2.787,-0.904l2.671,-0.276l5.104,1.032l3.365,2.114l1.665,1.885c1.924,-1.677 4.071,-3.319 6.456,-4.911c4.678,-3.123 15.641,-7.235 22.95,-8.921c0.207,-0.339 0.435,-0.671 0.682,-0.993c3.425,-4.458 9.591,-5.689 14.445,-2.883c1.766,1.021 3.399,2.084 4.909,3.181c15.54,2.19 23.675,10.52 28.512,17.96c2.731,-2.878 6.053,-5.681 10.044,-8.344c4.678,-3.123 15.641,-7.235 22.95,-8.921c0.207,-0.339 0.435,-0.671 0.682,-0.993c3.425,-4.458 9.591,-5.689 14.445,-2.883c1.766,1.021 3.399,2.084 4.909,3.181c12.865,1.813 20.655,7.835 25.7,14.075c1.424,-3.576 4.59,-6.218 8.434,-6.909c6.587,-1.184 11.915,-0.687 16.949,0.008c0.491,0.068 0.977,0.141 1.462,0.215c1.717,-3.319 5.016,-5.655 8.886,-6.024c3.935,-0.375 7.669,1.359 9.965,4.387l0.82,0.012l3.403,1.027l0.319,0.215c6.157,-0.976 11.215,-0.493 16.006,0.168c0.492,0.068 0.978,0.141 1.462,0.215c1.717,-3.319 5.016,-5.655 8.886,-6.024c3.935,-0.375 7.669,1.359 9.966,4.387l0.82,0.012l3.402,1.027l2.95,1.989l2.211,2.75l1.397,3.588l0.202,4.779l-1.116,3.997l-2.421,3.593c-1.363,1.477 -3.618,2.888 -5.569,3.938c-0.94,11.309 -2.552,24.323 -3.595,29.214c-2.477,11.61 -3.73,19.637 -4.647,25.59l3.276,1.47l2.842,2.126l2.151,2.647l1.443,3.367l0.429,3.423l-0.353,2.896l-0.967,2.762l-1.658,2.754c-2.279,3.073 -6.819,6.236 -7.409,6.62c-3.217,2.097 -7.274,2.393 -10.758,0.785c-0.501,-0.231 -0.981,-0.497 -1.436,-0.795c-2.669,1.924 -6.07,2.585 -9.285,1.761c-3.453,3.067 -8.472,3.718 -12.62,1.524c-2.529,-1.337 -4.47,-2.636 -5.956,-3.836c-0.399,0.287 -0.685,0.483 -0.806,0.561c-3.217,2.097 -7.275,2.393 -10.759,0.785c-0.501,-0.231 -0.98,-0.497 -1.436,-0.795c-2.668,1.924 -6.07,2.585 -9.284,1.761c-3.453,3.067 -8.473,3.718 -12.62,1.524c-4.089,-2.162 -6.64,-4.223 -8.216,-5.927l-2.695,-3.856l-1.227,-3.538l-0.259,-3.538l0.626,-3.394l1.524,-3.264l2.653,-3.169c1.592,-1.475 5.35,-3.563 7.291,-4.597c0.017,-1.31 0.031,-3.357 -0.002,-5.339c-0.075,-4.423 -0.142,-10.511 0.243,-19.201c-0.91,1.334 -1.91,2.585 -2.995,3.736c-4.271,4.532 -8.312,7.648 -12,9.753c-0.129,0.377 -0.262,0.759 -0.398,1.148c-2.005,5.719 -8.139,8.821 -13.891,7.023c-0.663,-0.207 -1.294,-0.471 -1.889,-0.785c-0.025,0.134 -0.05,0.267 -0.076,0.401l4.011,2.677l2.702,3.715l1.722,5.027l0.222,5.029l-1.566,5.718l-2.13,3.539l-2.328,2.563c-3.234,2.993 -7.905,3.807 -11.949,2.084c-1.807,-0.77 -3.341,-1.983 -4.495,-3.484c-0.09,0.04 -0.181,0.081 -0.272,0.123l-1.045,2.53l-2.099,3.049l-2.975,2.595l-3.678,1.722l-3.93,0.593l-3.726,-0.476l-3.274,-1.321l-2.754,-1.966l-2.217,-2.498l-1.636,-2.957l-0.968,-3.323l-0.211,-3.529l0.571,-3.511l1.282,-3.276l1.849,-2.908l2.281,-2.507c1.909,-1.795 4.799,-3.871 5.779,-4.561c0.144,-0.94 0.541,-3.809 0.511,-6.623c-0.039,-3.66 -0.327,-7.838 -0.738,-12.228c-7.077,2.996 -14.111,1.844 -19.857,-1.729c-0.786,-0.489 -1.557,-1.049 -2.306,-1.676c-0.021,0.023 -0.042,0.046 -0.064,0.069c-4.271,4.532 -8.312,7.648 -12,9.753c-0.129,0.377 -0.262,0.759 -0.398,1.148c-2.005,5.719 -8.139,8.821 -13.891,7.023c-0.663,-0.207 -1.294,-0.471 -1.889,-0.785c-0.025,0.134 -0.05,0.267 -0.076,0.401l4.011,2.677l2.702,3.715l1.722,5.027l0.222,5.029l-1.566,5.718l-2.13,3.539l-2.328,2.563c-3.234,2.993 -7.905,3.807 -11.949,2.084c-1.807,-0.77 -3.341,-1.983 -4.495,-3.484c-0.09,0.04 -0.181,0.081 -0.272,0.123l-1.045,2.53l-2.099,3.049l-2.975,2.595l-3.678,1.722l-3.93,0.593l-3.726,-0.476l-3.274,-1.321l-2.754,-1.966l-2.217,-2.498l-1.636,-2.957l-0.968,-3.323l-0.211,-3.529l0.571,-3.511l1.282,-3.276l1.849,-2.908l2.281,-2.507c1.909,-1.795 4.799,-3.871 5.779,-4.561c0.144,-0.94 0.541,-3.809 0.511,-6.623c-0.039,-3.66 -0.327,-7.838 -0.738,-12.228c-7.077,2.996 -14.111,1.844 -19.857,-1.729c-0.695,-0.432 -1.379,-0.921 -2.045,-1.461c-0.389,1.754 -0.879,3.768 -1.521,6.169c-1.148,4.293 -2.059,7.527 -2.881,10.255l1.672,1.481l2.909,4.552l1.373,5.05l-0.165,5.202l-0.979,3.233l-1.397,2.621l-2.236,2.741l-2.294,1.946c0.036,-0.026 0.07,-0.052 0.103,-0.077Zm0,-0c0.211,-0.166 0.416,-0.34 0.615,-0.522c-0.126,0.115 -0.327,0.303 -0.615,0.522Zm-38.808,-6.14c-0.059,0.418 -0.07,0.879 -0.014,1.388l0.014,-1.388Zm81.112,8.449l-0.232,0.175c0.07,-0.045 0.148,-0.104 0.232,-0.175Zm81.542,0l-0.232,0.175c0.07,-0.045 0.148,-0.104 0.232,-0.175Zm-210.253,-24.966l1.15,-0.857c-0.411,0.251 -0.795,0.538 -1.15,0.857Zm-40.976,-4.497l0.024,-0.604c-0.015,0.203 -0.023,0.404 -0.024,0.604Zm14.774,-22.416c-4.978,-1.624 -9.216,-4.708 -12.055,-8.255l-2.192,-3.528c-0.202,0.635 -0.405,1.283 -0.61,1.947c-1.171,3.802 -2.317,7.577 -3.298,12.358c2.385,-1.159 5.213,-1.976 8.32,-2.364c3.119,-0.39 6.623,-0.341 9.835,-0.158Zm326.427,-27.806c-0.939,11.309 -2.552,24.323 -3.595,29.214c-2.476,11.61 -3.73,19.637 -4.647,25.59l3.276,1.47l0.167,0.125c1.041,-0.604 2.037,-1.147 2.772,-1.538c0.016,-1.31 0.03,-3.357 -0.003,-5.339c-0.104,-6.15 -0.194,-15.518 0.929,-30.626c0.452,-6.076 1.185,-14.077 1.67,-19.208c-0.191,0.107 -0.382,0.212 -0.569,0.312Z" style="fill:#7c2d12;"/><g><path d="M284.464,500.071c-1.409,1.29 -1.768,0.256 -3.227,4.99c-2.244,7.282 -11.135,0.767 -4.45,-5.52c5.661,-5.325 10.016,-3.821 9.848,-19.556c-0.208,-19.428 -7.637,-53.62 -2.784,-55.756c8.838,-3.889 13.689,13.087 13.174,20.424c-0.508,7.23 -1.24,8.221 -1.649,25.025c-0.253,10.391 -0.352,10.409 -3.969,20.119c5.841,1.692 9.797,1.285 11.068,3.799c2.373,4.695 -1.171,7.975 -1.675,8.441c-0.086,-3.16 -0.695,-10.48 -16.336,-1.966Z" style="fill:#fed7aa;"/><path d="M271.684,439.048c-2.186,0.665 0.72,8.605 -5.869,10.924c-7.25,2.552 -13.996,-20.075 9.438,-28.528c4.217,-1.521 15.801,-9.105 30.854,-6.692c23.593,3.781 21.538,29.33 12.675,38.561c-10.427,10.859 -15.488,9.001 -16.908,8.479c-0.318,-0.116 -1.02,-1.317 -0.985,-1.373c0.74,-1.181 10.005,-0.748 7.812,-5.575c-2.216,-4.88 -10.836,-3.712 -10.628,4.784c0.133,5.456 10.981,14.992 27.802,-2.858c6.049,-6.419 8.138,-17.494 3.462,-26.671c-3.747,-7.354 -10.949,-23.31 -38.155,-19.786c-5.519,0.715 -17.109,4.774 -21.601,7.773c-29.799,19.893 -10.977,49.971 4.7,36.911c4.633,-3.859 4.644,-8.203 4.646,-9.016c0.014,-5.539 -5.058,-7.598 -7.243,-6.933Z" style="fill:#fed7aa;"/><path d="M311.037,471.684c4.163,-15.618 2.887,-17.309 -1.891,-39.127c-1.49,-6.806 -7.146,-20.599 -13.26,-26.887c15.555,8.992 18.22,21.892 18.782,32.077c0.91,16.516 0.598,21.873 -3.631,33.937Z" style="fill:#fed7aa;"/><path d="M366.006,500.071c-1.409,1.29 -1.768,0.256 -3.227,4.99c-2.244,7.282 -11.135,0.767 -4.45,-5.52c5.661,-5.325 10.016,-3.821 9.848,-19.556c-0.208,-19.428 -7.637,-53.62 -2.784,-55.756c8.838,-3.889 13.689,13.087 13.174,20.424c-0.508,7.23 -1.24,8.221 -1.649,25.025c-0.253,10.391 -0.352,10.409 -3.969,20.119c5.841,1.692 9.797,1.285 11.068,3.799c2.373,4.695 -1.171,7.975 -1.675,8.441c-0.086,-3.16 -0.695,-10.48 -16.336,-1.966Z" style="fill:#fed7aa;"/><path d="M353.226,439.048c-2.186,0.665 0.72,8.605 -5.869,10.924c-7.25,2.552 -13.996,-20.075 9.438,-28.528c4.217,-1.521 15.801,-9.105 30.854,-6.692c23.593,3.781 21.538,29.33 12.675,38.561c-10.427,10.859 -15.488,9.001 -16.908,8.479c-0.318,-0.116 -1.02,-1.317 -0.985,-1.373c0.74,-1.181 10.005,-0.748 7.812,-5.575c-2.216,-4.88 -10.836,-3.712 -10.628,4.784c0.133,5.456 10.981,14.992 27.802,-2.858c6.049,-6.419 8.138,-17.494 3.462,-26.671c-3.747,-7.354 -10.949,-23.31 -38.155,-19.786c-5.519,0.715 -17.109,4.774 -21.601,7.773c-29.799,19.893 -10.977,49.971 4.7,36.911c4.633,-3.859 4.644,-8.203 4.646,-9.016c0.015,-5.539 -5.058,-7.598 -7.243,-6.933Z" style="fill:#fed7aa;"/><path d="M392.579,471.684c4.163,-15.618 2.887,-17.309 -1.891,-39.127c-1.49,-6.806 -7.146,-20.599 -13.26,-26.887c15.555,8.992 18.22,21.892 18.782,32.077c0.91,16.516 0.598,21.873 -3.631,33.937Z" style="fill:#fed7aa;"/><path d="M430.879,494.925c1.478,-0.177 16.688,-1.425 20.519,2.195c2.279,2.152 -4.232,6.396 -4.785,6.757c-1.638,-11.955 -20.4,-4.309 -22.057,-3.633c-4.831,1.968 -2.199,4.091 -0.743,6.39c-14.268,-7.546 -0.746,-10.215 2.341,-12.848c6.139,-5.235 1.538,-7.068 4.25,-43.563c0.885,-11.914 3.192,-25.095 1.725,-28.089c-1.187,-2.423 -5.376,-2.76 -8.109,-4.795c10.865,-1.953 17.417,2.17 26.523,0.497c6.894,-1.267 8.97,-3.389 8.611,-0.117c-0.214,1.961 -4.998,3.735 -5.505,3.923c-0.85,0.315 -1.753,0.65 -11.212,1.606c-5.512,13.822 1.304,24.214 -11.558,71.677Z" style="fill:#fed7aa;"/><path d="M450.404,411.664c-3.548,27.713 -4.769,32.548 -7.858,48.101c-3.455,17.395 -4.618,19.06 -8.562,44.399c9.09,-10.559 5.491,-13.266 12.652,-46.836c1.773,-8.315 5.196,-41.278 3.768,-45.664Z" style="fill:#fed7aa;"/><path d="M471.741,494.925c1.477,-0.177 16.687,-1.425 20.519,2.195c2.279,2.152 -4.232,6.396 -4.786,6.757c-1.638,-11.955 -20.399,-4.309 -22.057,-3.633c-4.83,1.968 -2.199,4.091 -0.742,6.39c-14.269,-7.546 -0.747,-10.215 2.341,-12.848c6.139,-5.235 1.537,-7.068 4.249,-43.563c0.886,-11.914 3.193,-25.095 1.725,-28.089c-1.187,-2.423 -5.376,-2.76 -8.109,-4.795c10.866,-1.953 17.417,2.17 26.524,0.497c6.893,-1.267 8.969,-3.389 8.611,-0.117c-0.215,1.961 -4.999,3.735 -5.505,3.923c-0.85,0.315 -1.753,0.65 -11.213,1.606c-5.511,13.822 1.305,24.214 -11.557,71.677Z" style="fill:#fed7aa;"/><path d="M491.265,411.664c-3.548,27.713 -4.945,32.171 -7.857,48.101c-3.19,17.446 -4.396,20.884 -8.563,44.399c8.959,-10.797 5.137,-13.908 12.652,-46.836c1.892,-8.289 5.197,-41.278 3.768,-45.664Z" style="fill:#fed7aa;"/><path d="M229.502,497.22c18.374,-72.357 11.93,-75.219 16.004,-77.043c7.005,-3.134 1.512,16.896 1.124,18.311c-3.984,14.524 -2.292,14.873 -6.186,29.433c-3.885,14.522 -4.936,16.398 -9.364,28.969" style="fill:#fed7aa;"/><path d="M138.367,430.847c-20.093,2.046 -2.622,25.486 12.68,14.24c15.979,-11.743 -2.392,-35.737 -24.624,-31.692c-21.973,3.997 -32.884,13.826 -40.37,24.69c-5.63,8.17 -8.417,20.49 -7.112,29.409c2.066,14.108 7.107,19.507 15.531,27.176c10.508,9.565 21.586,9.931 29.417,9.627c12.062,-0.468 13.723,-4.414 17.798,-12.226c2.242,-4.298 5.61,-13.25 7.218,-17.32c0.637,-1.613 8.788,-1.029 8.992,-2.218c0.199,-1.152 -13.173,-2.154 -15.559,-2.319c-4.812,-0.331 -17.112,-2.297 -22.084,1.498c-0.486,8.737 18.411,3 18.424,3.01c0.479,0.385 -7.032,17.254 -10.324,19.565c-10.343,7.262 -32.063,-4.038 -38.78,-21.999c-3.663,-9.795 -3.399,-21.243 6.839,-33.498c11.515,-13.786 44.377,-25.952 52.753,-10.617c7.947,14.552 -18.024,20.254 -13.713,10.88c1.494,-3.249 2.149,-2.84 3.689,-6.06c0.329,-0.69 -0.665,-2.001 -0.775,-2.146Z" style="fill:#fed7aa;"/><path d="M139.706,507.628c0.332,-3.103 7.295,-36.45 10.099,-46.058c2.543,7.38 -0.902,13.865 -1.99,18.619c-3.152,13.77 -8.441,30.542 -8.109,27.439Z" style="fill:#fed7aa;"/><path d="M166.732,494.739c0.698,-0.739 4.48,-1.392 1.122,-5.349c-5.081,-5.988 -19.985,15.261 -4.632,15.699c3.807,0.108 21.679,-7.681 42.214,-37.833c0.853,-1.253 24.026,-31.567 22.588,-38.32c-0.01,-0.047 -4.893,-2.227 -5.055,-2.253c-3.735,-0.598 -9.359,21.232 -18.222,32.757c-11.963,15.556 -29.253,39.113 -40.817,41.279c-0.471,0.088 -4.188,-2.206 -0.289,-4.135c1.61,-0.796 1.65,-0.609 3.091,-1.845Z" style="fill:#fed7aa;"/><path d="M220.829,493.608c6.318,-29.292 7.549,-37.239 8.054,-40.504c2.463,-15.901 1.827,-15.933 2.223,-30.98c10.136,-2.495 6.249,13.132 5.915,22.653c-0.31,8.838 0.027,8.947 -4.757,24.916c-1.788,5.969 -2.498,10.5 -6.129,20.607c11.133,-2.023 15.041,-2.23 16.518,1.266c2.069,4.895 -1.78,7.032 -2.185,7.401c-0.418,-2.944 0.657,-5.254 -2.431,-5.532c-7.908,-0.712 -18.663,5.579 -18.349,8.423c0.816,7.371 -6.638,2.793 -7.719,-0.529c-1.536,-4.722 8.515,-7.591 8.86,-7.721Z" style="fill:#fed7aa;"/><path d="M195.664,440.647c7.179,-10.609 10.987,-5.529 50.565,-19.778c-19.027,0.417 -18.633,2.725 -37.159,7.226c-13.859,3.367 -15.096,2.048 -16.432,5.587c-1.716,4.545 2.918,6.899 3.026,6.965Z" style="fill:#fed7aa;"/><path d="M227.048,467.187c-0.802,-1.219 -26.067,4.245 -26.695,5.393c-1.315,2.407 4.259,6.867 4.813,7.31c6.825,-9.805 22.684,-11.485 21.882,-12.703Z" style="fill:#fed7aa;"/><path d="M124.446,408.05c-4.343,8.852 -18.53,22.354 -24.14,54.596c-2.651,15.23 -0.951,40.177 7.619,46.797c-1.25,-7.5 -2.001,-10.796 -3.727,-17.777c-1.69,-6.84 -1.239,-18.265 0.852,-30.101c1.182,-6.685 2.639,-11.552 4.151,-16.457c5.591,-18.142 10.388,-26.156 17.16,-35.578c0.881,-1.225 -1.477,-2.374 -1.915,-1.48Z" style="fill:#fed7aa;"/></g></g><g><path d="M72.225,493.495l0.282,0.443c0.902,1.758 1.528,4.278 1.358,7.292c-0.282,4.968 -2.758,11.831 -9.41,17.389c-1.67,1.395 -9.621,5.37 -18.322,5.567c-5.829,0.132 -11.951,-1.273 -15.529,-2.531c-2.574,-0.905 -4.24,-2.014 -4.871,-2.595c-1.555,-1.431 -7.263,-6.238 -7.925,-14.034c-0.208,-2.456 -0.134,-7.166 1.057,-10.051l1.271,-2.271l0.939,-1.004c-0.918,-1.452 -1.698,-3.118 -2.14,-4.988c-0.464,-1.965 -0.777,-6.295 -0.22,-9.446l0.93,-3.133l1.715,-2.6l0.353,-0.286c-0.767,-1.524 -1.319,-3.196 -1.652,-4.969c-1.028,-5.475 0.163,-11.935 2.729,-16.591c4.739,-8.603 8.812,-10.878 18.837,-14.728c2.297,-0.882 4.886,-0.453 6.78,1.124c1.894,1.577 2.801,4.058 2.373,6.495c-0.288,1.639 -0.249,3.503 -0.057,4.956c1.563,0.26 3.607,0.532 5.575,0.61c1.187,0.048 2.34,0.127 3.137,-0.154c1.24,-0.438 2.579,-0.506 3.856,-0.196c7.215,1.75 9.892,5.874 11.179,10.635c0.008,0.033 0.017,0.066 0.026,0.099c1.317,5.179 1.509,8.433 -0.008,13.313l1.936,2.403l0.866,1.869l0.503,1.907l0.13,3.784c-0.33,3.303 -1.939,7.549 -5.698,11.691Z" style="fill:#431407;"/><path d="M44.059,441.381c-0.601,3.425 -0.19,7.516 0.413,9.612c0.404,1.405 1.784,2.681 3.207,2.969c2.87,0.58 10.407,1.789 14.014,0.515c3.954,0.959 5.486,3.148 6.191,5.758c1.037,4.077 1.171,6.513 -0.253,10.591c-1.162,2.189 -2.912,3.716 -5.445,4.364c-10.732,1.807 -26.006,-0.124 -31.577,-3.818c-5.327,-3.533 -4.939,-12.745 -1.852,-18.35c3.812,-6.918 7.24,-8.545 15.302,-11.641Z" style="fill:#c2410c;"/><path d="M27.695,475.987c4.922,1.892 10.597,2.855 19.101,3.936c14.288,1.816 15.162,-2.802 20.058,-3.739c5.543,-1.061 7.063,8.352 -3.455,16.044c-1.371,1.002 -7.985,3.597 -15.128,3.738c-7.544,0.15 -15.626,-2.206 -16.762,-3.122c-1.054,-0.849 -4.917,-3.416 -5.935,-7.723c-0.584,-2.471 -0.779,-10.249 2.121,-9.134Z" style="fill:#c2410c;"/><path d="M26.778,496.013c3.611,-0.758 13.568,3.988 18.158,4.305c6.803,0.471 14.608,-1.651 18.386,-4.095c4.454,-2.881 6.592,8.904 -3.224,17.105c-1.279,1.069 -7.452,3.835 -14.118,3.986c-7.04,0.159 -14.583,-2.353 -15.643,-3.329c-1.074,-0.988 -5.272,-4.159 -5.729,-9.545c-0.202,-2.377 -0.335,-7.901 2.17,-8.427Z" style="fill:#c2410c;"/></g><g><path d="M500.297,497.475l-0.281,0.443c-0.903,1.758 -1.529,4.278 -1.358,7.292c0.281,4.968 2.757,11.831 9.409,17.389c1.67,1.395 9.621,5.37 18.322,5.567c5.829,0.132 11.952,-1.273 15.529,-2.531c2.575,-0.905 4.24,-2.014 4.872,-2.595c1.554,-1.431 7.262,-6.238 7.924,-14.034c0.209,-2.456 0.135,-7.166 -1.057,-10.051l-1.27,-2.271l-0.94,-1.004c0.918,-1.452 1.699,-3.118 2.14,-4.988c0.465,-1.965 0.777,-6.295 0.22,-9.446l-0.93,-3.133l-1.715,-2.6l-0.353,-0.285c0.768,-1.525 1.32,-3.197 1.652,-4.97c1.029,-5.475 -0.163,-11.935 -2.728,-16.591c-4.74,-8.603 -8.813,-10.878 -18.838,-14.728c-2.296,-0.882 -4.886,-0.453 -6.78,1.124c-1.894,1.577 -2.8,4.058 -2.372,6.495c0.287,1.639 0.248,3.503 0.056,4.956c-1.563,0.26 -3.607,0.532 -5.575,0.61c-1.187,0.048 -2.34,0.127 -3.136,-0.154c-1.24,-0.438 -2.579,-0.506 -3.857,-0.196c-7.215,1.751 -9.892,5.874 -11.178,10.636c-0.009,0.032 -0.018,0.065 -0.026,0.099c-1.317,5.178 -1.51,8.432 0.008,13.312l-1.936,2.403l-0.866,1.869l-0.504,1.907l-0.13,3.784c0.331,3.303 1.939,7.549 5.698,11.691Z" style="fill:#431407;"/><path d="M528.463,445.361c0.602,3.425 0.191,7.516 -0.413,9.612c-0.404,1.405 -1.783,2.681 -3.207,2.969c-2.87,0.58 -10.407,1.789 -14.014,0.515c-3.954,0.959 -5.486,3.148 -6.191,5.758c-1.037,4.077 -1.171,6.513 0.254,10.591c1.161,2.189 2.911,3.716 5.444,4.364c10.732,1.807 26.006,-0.124 31.577,-3.818c5.327,-3.533 4.94,-12.745 1.852,-18.35c-3.811,-6.918 -7.24,-8.544 -15.302,-11.641Z" style="fill:#c2410c;"/><path d="M544.827,479.967c-4.921,1.892 -10.597,2.855 -19.1,3.936c-14.289,1.816 -15.163,-2.802 -20.059,-3.739c-5.543,-1.061 -7.063,8.352 3.455,16.044c1.371,1.002 7.985,3.597 15.129,3.738c7.543,0.15 15.625,-2.206 16.761,-3.122c1.054,-0.849 4.917,-3.416 5.935,-7.723c0.584,-2.471 0.779,-10.249 -2.121,-9.134Z" style="fill:#c2410c;"/><path d="M545.744,499.993c-3.611,-0.758 -13.567,3.988 -18.157,4.305c-6.804,0.471 -14.608,-1.65 -18.387,-4.095c-4.454,-2.881 -6.591,8.904 3.224,17.105c1.28,1.069 7.452,3.835 14.119,3.986c7.039,0.159 14.582,-2.352 15.643,-3.328c1.073,-0.989 5.271,-4.16 5.728,-9.546c0.202,-2.376 0.335,-7.901 -2.17,-8.427Z" style="fill:#c2410c;"/></g></g></svg>