<?xml version="1.0" encoding="UTF-8" standalone="no"?><!DOCTYPE svg PUBLIC "-//W3C//DTD SVG 1.1//EN" "http://www.w3.org/Graphics/SVG/1.1/DTD/svg11.dtd"><svg width="100%" height="100%" viewBox="0 0 4916 4916" version="1.1" xmlns="http://www.w3.org/2000/svg" xmlns:xlink="http://www.w3.org/1999/xlink" xml:space="preserve" xmlns:serif="http://www.serif.com/" style="fill-rule:evenodd;clip-rule:evenodd;stroke-linecap:round;stroke-linejoin:round;stroke-miterlimit:1.5;"><rect id="group" x="0" y="0" width="4915.1" height="4915.1" style="fill:none;"/><g><path id="BL" d="M2307.15,2953.01l0,716.85c0,197.821 -160.604,358.425 -358.425,358.425l-716.85,-0c-197.821,-0 -358.425,-160.604 -358.425,-358.425l0,-716.85c0,-197.821 160.604,-358.425 358.425,-358.425l716.85,-0c197.821,-0 358.425,160.604 358.425,358.425Z" style="fill:none;stroke:#000;stroke-width:173.63px;"/><path id="TL" d="M2307.15,1245.24l0,716.85c0,197.821 -160.604,358.425 -358.425,358.425l-716.85,-0c-197.821,-0 -358.425,-160.604 -358.425,-358.425l0,-716.85c0,-197.821 160.604,-358.425 358.425,-358.425l716.85,-0c197.821,-0 358.425,160.604 358.425,358.425Z" style="fill:none;stroke:#000;stroke-width:173.63px;"/><path id="TR" d="M4041.65,1245.24l0,716.85c0,197.821 -160.608,358.425 -358.425,358.425l-716.85,-0c-197.821,-0 -358.425,-160.604 -358.425,-358.425l0,-716.85c0,-197.821 160.604,-358.425 358.425,-358.425l716.85,-0c197.817,-0 358.425,160.604 358.425,358.425Z" style="fill:none;stroke:#000;stroke-width:173.63px;"/><path id="BR" d="M4041.65,2953.01l0,716.85c0,197.821 -160.608,358.425 -358.425,358.425l-716.85,-0c-197.821,-0 -358.425,-160.604 -358.425,-358.425l0,-716.85c0,-197.821 160.604,-358.425 358.425,-358.425l716.85,-0c197.817,-0 358.425,160.604 358.425,358.425Z" style="fill:none;stroke:#000;stroke-width:173.63px;"/></g></svg>